{
  "asset": {
    "generator": "Khronos glTF Blender I/O v1.7.33",
    "version": "2.0"
  },
  "scene": 0,
  "scenes": [
    {
      "name": "Scene",
      "nodes": [
        0
      ]
    }
  ],
  "nodes": [
    {
      "mesh": 0,
      "name": "sphere_gltf"
    }
  ],
  "materials": [
    {
      "doubleSided": true,
      "name": "wood_table_worn",
      "normalTexture": {
        "index": 0
      },
      "pbrMetallicRoughness": {
        "baseColorTexture": {
          "index": 1
        },
        "metallicFactor": 0,
        "metallicRoughnessTexture": {
          "index": 2
        }
      }
    }
  ],
  "meshes": [
    {
      "name": "Sphere.001",
      "primitives": [
        {
          "attributes": {
            "POSITION": 0,
            "NORMAL": 1,
            "TEXCOORD_0": 2
          },
          "indices": 3,
          "material": 0
        }
      ]
    }
  ],
  "textures": [
    {
      "sampler": 0,
      "source": 0
    },
    {
      "sampler": 0,
      "source": 1
    },
    {
      "sampler": 0,
      "source": 2
    }
  ],
  "images": [
    {
      "mimeType": "image/jpeg",
      "name": "wood_table_worn_nor_gl_8k",
      "uri": "textures/wood_table_worn_nor_gl_2k.jpg"
    },
    {
      "mimeType": "image/jpeg",
      "name": "wood_table_worn_diff_8k",
      "uri": "textures/wood_table_worn_diff_2k.jpg"
    },
    {
      "mimeType": "image/jpeg",
      "name": "wood_table_worn_rough_8k",
      "uri": "textures/wood_table_worn_rough_2k.jpg"
    }
  ],
  "accessors": [
    {
      "bufferView": 0,
      "componentType": 5126,
      "count": 53923,
      "max": [
        0.2749491333961487,
        0.2749737501144409,
        0.274976909160614
      ],
      "min": [
        -0.2749491035938263,
        -0.27496790885925293,
        -0.27497708797454834
      ],
      "type": "VEC3"
    },
    {
      "bufferView": 1,
      "componentType": 5126,
      "count": 53923,
      "type": "VEC3"
    },
    {
      "bufferView": 2,
      "componentType": 5126,
      "count": 53923,
      "type": "VEC2"
    },
    {
      "bufferView": 3,
      "componentType": 5123,
      "count": 322170,
      "type": "SCALAR"
    }
  ],
  "bufferViews": [
    {
      "buffer": 0,
      "byteLength": 647076,
      "byteOffset": 0
    },
    {
      "buffer": 0,
      "byteLength": 647076,
      "byteOffset": 647076
    },
    {
      "buffer": 0,
      "byteLength": 431384,
      "byteOffset": 1294152
    },
    {
      "buffer": 0,
      "byteLength": 644340,
      "byteOffset": 1725536
    }
  ],
  "samplers": [
    {
      "magFilter": 9729,
      "minFilter": 9987
    }
  ],
  "buffers": [
    {
      "byteLength": 2369876,
      "uri": "wood_table_worn.bin"
    }
  ]
}