{
  "accessors": [
    {
      "name": "arrowCurved_1_0_positions",
      "componentType": 5126,
      "count": 30843,
      "min": [
        -0.8103640079498291,
        -0.21829399466514587,
        -1.854241967201233
      ],
      "max": [
        2.340182065963745,
        0.3071190118789673,
        1.4446580410003662
      ],
      "type": "VEC3",
      "bufferView": 0,
      "byteOffset": 0
    },
    {
      "name": "arrowCurved_1_0_normals",
      "componentType": 5126,
      "count": 30843,
      "min": [
        -0.9999072551727295,
        -1,
        -0.9999002814292908
      ],
      "max": [
        0.9999927878379822,
        1,
        1
      ],
      "type": "VEC3",
      "bufferView": 1,
      "byteOffset": 0
    },
    {
      "name": "arrowCurved_1_0_texcoords",
      "componentType": 5126,
      "count": 30843,
      "min": [
        0.001858999952673912,
        0.0019920000340789557
      ],
      "max": [
        0.931352972984314,
        0.9980080127716064
      ],
      "type": "VEC2",
      "bufferView": 2,
      "byteOffset": 0
    },
    {
      "name": "arrowCurved_1_0_indices",
      "componentType": 5123,
      "count": 178176,
      "min": [
        0
      ],
      "max": [
        30842
      ],
      "type": "SCALAR",
      "bufferView": 3,
      "byteOffset": 0
    }
  ],
  "asset": {
    "generator": "obj2gltf",
    "version": "2.0"
  },
  "buffers": [
    {
      "name": "arrowCurved",
      "byteLength": 1343328,
      "uri": "data:application/octet-stream;base64,"
    }
  ],
  "bufferViews": [
    {
      "name": "bufferView_0",
      "buffer": 0,
      "byteLength": 370116,
      "byteOffset": 0,
      "byteStride": 12,
      "target": 34962
    },
    {
      "name": "bufferView_1",
      "buffer": 0,
      "byteLength": 370116,
      "byteOffset": 370116,
      "byteStride": 12,
      "target": 34962
    },
    {
      "name": "bufferView_2",
      "buffer": 0,
      "byteLength": 246744,
      "byteOffset": 740232,
      "byteStride": 8,
      "target": 34962
    },
    {
      "name": "bufferView_3",
      "buffer": 0,
      "byteLength": 356352,
      "byteOffset": 986976,
      "target": 34963
    }
  ],
  "materials": [
    {
      "name": "initialShadingGroup",
      "pbrMetallicRoughness": {
        "baseColorFactor": [
          0.5,
          0.5,
          0.5,
          1
        ],
        "metallicFactor": 0,
        "roughnessFactor": 1
      },
      "emissiveFactor": [
        0,
        0,
        0
      ],
      "alphaMode": "OPAQUE",
      "doubleSided": false
    }
  ],
  "meshes": [
    {
      "name": "arrowCurved_1",
      "primitives": [
        {
          "attributes": {
            "POSITION": 0,
            "NORMAL": 1,
            "TEXCOORD_0": 2
          },
          "indices": 3,
          "material": 0,
          "mode": 4
        }
      ]
    }
  ],
  "nodes": [
    {
      "name": "arrowCurved",
      "mesh": 0
    }
  ],
  "scene": 0,
  "scenes": [
    {
      "nodes": [
        0
      ]
    }
  ]
}
