{
    "asset": {
        "copyright": "(C)2023 osain",
        "generator": "maya2glTF main fbbc95e5dc4d",
        "version": "2.0"
    },
    "scenes": [
        {
            "nodes": [
                0
            ]
        }
    ],
    "scene": 0,
    "nodes": [
        {
            "name": "BKG_grp",
            "children": [
                4,
                2,
                1
            ],
            "translation": [
                -5.426998615264893,
                0.08150868862867356,
                -21.45998764038086
            ]
        },
        {
            "name": "Wall_2",
            "mesh": 0,
            "translation": [
                0.0,
                15.506749153137209,
                -6.894066333770752
            ],
            "scale": [
                2.364912986755371,
                33.86870574951172,
                28.95965385437012
            ]
        },
        {
            "name": "Wall_1",
            "children": [
                3
            ],
            "translation": [
                -36.16114807128906,
                36.1611442565918,
                9.789252281188965
            ],
            "scale": [
                72.32229614257813,
                72.32229614257813,
                72.32229614257813
            ]
        },
        {
            "name": "Wall_1:PIV",
            "mesh": 1,
            "translation": [
                0.5,
                0.0,
                0.0
            ]
        },
        {
            "name": "Floor",
            "children": [
                5
            ],
            "translation": [
                0.0,
                -0.000001996000037252088,
                9.789252281188965
            ],
            "scale": [
                442.9594421386719,
                72.32229614257813,
                442.9594421386719
            ]
        },
        {
            "name": "Floor:PIV",
            "mesh": 2,
            "translation": [
                0.0,
                0.5,
                0.0
            ]
        }
    ],
    "meshes": [
        {
            "name": "Wall_2Shape",
            "extras": {
                "targetNames": []
            },
            "primitives": [
                {
                    "attributes": {
                        "NORMAL": 1,
                        "POSITION": 2,
                        "TANGENT": 3,
                        "TEXCOORD_0": 4
                    },
                    "indices": 0,
                    "mode": 4,
                    "material": 0
                }
            ]
        },
        {
            "name": "Wall_Shape1",
            "extras": {
                "targetNames": []
            },
            "primitives": [
                {
                    "attributes": {
                        "NORMAL": 6,
                        "POSITION": 7,
                        "TANGENT": 8,
                        "TEXCOORD_0": 9
                    },
                    "indices": 5,
                    "mode": 4,
                    "material": 0
                }
            ]
        },
        {
            "name": "FloorShape",
            "extras": {
                "targetNames": []
            },
            "primitives": [
                {
                    "attributes": {
                        "NORMAL": 11,
                        "POSITION": 12,
                        "TANGENT": 13,
                        "TEXCOORD_0": 14
                    },
                    "indices": 10,
                    "mode": 4,
                    "material": 0
                }
            ]
        }
    ],
    "materials": [
        {
            "name": "BKG_export_lambert4",
            "pbrMetallicRoughness": {
                "baseColorFactor": [
                    0.4000000059604645,
                    0.4000000059604645,
                    0.4000000059604645,
                    1.0
                ],
                "metallicFactor": 0.0,
                "roughnessFactor": 1.0
            }
        }
    ],
    "accessors": [
        {
            "name": "Wall_2Shape#0/indices",
            "bufferView": 0,
            "byteOffset": 0,
            "componentType": 5123,
            "count": 42,
            "max": [
                25
            ],
            "min": [
                0
            ],
            "type": "SCALAR"
        },
        {
            "name": "Wall_2Shape#0/vertices/NORMAL",
            "bufferView": 1,
            "byteOffset": 0,
            "componentType": 5126,
            "count": 26,
            "max": [
                0.9999999403953552,
                0.0,
                1.0
            ],
            "min": [
                -0.9999999403953552,
                0.0,
                0.0
            ],
            "type": "VEC3"
        },
        {
            "name": "Wall_2Shape#0/vertices/POSITION",
            "bufferView": 1,
            "byteOffset": 312,
            "componentType": 5126,
            "count": 26,
            "max": [
                0.5,
                1.6064716577529908,
                0.5
            ],
            "min": [
                -0.4575040340423584,
                -0.4885520339012146,
                -3.103712797164917
            ],
            "type": "VEC3"
        },
        {
            "name": "Wall_2Shape#0/vertices/TANGENT",
            "bufferView": 2,
            "byteOffset": 0,
            "componentType": 5126,
            "count": 26,
            "max": [
                1.0,
                1.0,
                0.0017869180301204324,
                1.0
            ],
            "min": [
                0.0,
                0.0,
                -0.9992342591285706,
                1.0
            ],
            "type": "VEC4"
        },
        {
            "name": "Wall_2Shape#0/vertices/TEXCOORD_0",
            "bufferView": 3,
            "byteOffset": 0,
            "componentType": 5126,
            "count": 26,
            "max": [
                0.882816731929779,
                0.9980079531669616
            ],
            "min": [
                0.001762108993716538,
                0.001991986995562911
            ],
            "type": "VEC2"
        },
        {
            "name": "Wall_Shape1#0/indices",
            "bufferView": 0,
            "byteOffset": 84,
            "componentType": 5123,
            "count": 6,
            "max": [
                3
            ],
            "min": [
                0
            ],
            "type": "SCALAR"
        },
        {
            "name": "Wall_Shape1#0/vertices/NORMAL",
            "bufferView": 1,
            "byteOffset": 624,
            "componentType": 5126,
            "count": 4,
            "max": [
                1.0,
                0.0,
                0.0
            ],
            "min": [
                1.0,
                0.0,
                0.0
            ],
            "type": "VEC3"
        },
        {
            "name": "Wall_Shape1#0/vertices/POSITION",
            "bufferView": 1,
            "byteOffset": 672,
            "componentType": 5126,
            "count": 4,
            "max": [
                -0.5,
                0.5,
                0.5
            ],
            "min": [
                -0.5,
                -0.5,
                -3.92545223236084
            ],
            "type": "VEC3"
        },
        {
            "name": "Wall_Shape1#0/vertices/TANGENT",
            "bufferView": 2,
            "byteOffset": 416,
            "componentType": 5126,
            "count": 4,
            "max": [
                0.0,
                1.0,
                0.000018728000213741329,
                1.0
            ],
            "min": [
                0.0,
                1.0,
                0.000018728000213741329,
                1.0
            ],
            "type": "VEC4"
        },
        {
            "name": "Wall_Shape1#0/vertices/TEXCOORD_0",
            "bufferView": 3,
            "byteOffset": 208,
            "componentType": 5126,
            "count": 4,
            "max": [
                1.0,
                1.0
            ],
            "min": [
                0.0,
                0.0
            ],
            "type": "VEC2"
        },
        {
            "name": "FloorShape#0/indices",
            "bufferView": 0,
            "byteOffset": 96,
            "componentType": 5123,
            "count": 6,
            "max": [
                3
            ],
            "min": [
                0
            ],
            "type": "SCALAR"
        },
        {
            "name": "FloorShape#0/vertices/NORMAL",
            "bufferView": 1,
            "byteOffset": 720,
            "componentType": 5126,
            "count": 4,
            "max": [
                0.0,
                1.0,
                0.0
            ],
            "min": [
                0.0,
                1.0,
                0.0
            ],
            "type": "VEC3"
        },
        {
            "name": "FloorShape#0/vertices/POSITION",
            "bufferView": 1,
            "byteOffset": 768,
            "componentType": 5126,
            "count": 4,
            "max": [
                0.5,
                -0.5,
                0.5
            ],
            "min": [
                -0.5,
                -0.5,
                -0.5
            ],
            "type": "VEC3"
        },
        {
            "name": "FloorShape#0/vertices/TANGENT",
            "bufferView": 2,
            "byteOffset": 480,
            "componentType": 5126,
            "count": 4,
            "max": [
                1.0,
                0.0,
                0.0000022050001007301036,
                1.0
            ],
            "min": [
                1.0,
                0.0,
                0.000002171999994970975,
                1.0
            ],
            "type": "VEC4"
        },
        {
            "name": "FloorShape#0/vertices/TEXCOORD_0",
            "bufferView": 3,
            "byteOffset": 240,
            "componentType": 5126,
            "count": 4,
            "max": [
                1.0,
                1.0
            ],
            "min": [
                0.0,
                5.99999978589949e-8
            ],
            "type": "VEC2"
        }
    ],
    "bufferViews": [
        {
            "name": "BKG_01/data/indices-2",
            "buffer": 0,
            "byteOffset": 1632,
            "byteLength": 108,
            "target": 34963
        },
        {
            "name": "BKG_01/data/vertices-12",
            "buffer": 0,
            "byteOffset": 544,
            "byteLength": 816,
            "byteStride": 12,
            "target": 34962
        },
        {
            "name": "BKG_01/data/vertices-16",
            "buffer": 0,
            "byteOffset": 0,
            "byteLength": 544,
            "byteStride": 16,
            "target": 34962
        },
        {
            "name": "BKG_01/data/vertices-8",
            "buffer": 0,
            "byteOffset": 1360,
            "byteLength": 272,
            "byteStride": 8,
            "target": 34962
        }
    ],
    "buffers": [
        {
            "name": "BKG_01/data",
            "byteLength": 1740,
            "uri": "BKG_010.bin"
        }
    ]
}
