{
    "asset": {
        "copyright": "(C)2024 osain",
        "generator": "maya2glTF main fbbc95e5dc4d",
        "version": "2.0"
    },
    "scenes": [
        {
            "nodes": [
                0
            ]
        }
    ],
    "scene": 0,
    "nodes": [
        {
            "name": "BKG1",
            "mesh": 0
        }
    ],
    "meshes": [
        {
            "name": "BKG1Shape",
            "extras": {
                "targetNames": []
            },
            "primitives": [
                {
                    "attributes": {
                        "NORMAL": 1,
                        "POSITION": 2,
                        "TANGENT": 3,
                        "TEXCOORD_0": 4,
                        "TEXCOORD_1": 5
                    },
                    "indices": 0,
                    "mode": 4,
                    "material": 0
                }
            ]
        }
    ],
    "materials": [
        {
            "name": "lambert6",
            "pbrMetallicRoughness": {
                "baseColorFactor": [
                    0.4000000059604645,
                    0.4000000059604645,
                    0.4000000059604645,
                    1.0
                ],
                "metallicFactor": 0.0,
                "roughnessFactor": 1.0
            }
        }
    ],
    "accessors": [
        {
            "name": "BKG1Shape#0/indices",
            "bufferView": 0,
            "byteOffset": 0,
            "componentType": 5123,
            "count": 6,
            "max": [
                3
            ],
            "min": [
                0
            ],
            "type": "SCALAR"
        },
        {
            "name": "BKG1Shape#0/vertices/NORMAL",
            "bufferView": 1,
            "byteOffset": 0,
            "componentType": 5126,
            "count": 4,
            "max": [
                0.2766427993774414,
                -4.400000008786265e-8,
                0.9609729051589966
            ],
            "min": [
                0.2766427993774414,
                -4.400000008786265e-8,
                0.9609729051589966
            ],
            "type": "VEC3"
        },
        {
            "name": "BKG1Shape#0/vertices/POSITION",
            "bufferView": 1,
            "byteOffset": 48,
            "componentType": 5126,
            "count": 4,
            "max": [
                32.41925048828125,
                436.77630615234377,
                -464.765380859375
            ],
            "min": [
                -1697.331787109375,
                -263.2236938476563,
                -962.722412109375
            ],
            "type": "VEC3"
        },
        {
            "name": "BKG1Shape#0/vertices/TANGENT",
            "bufferView": 2,
            "byteOffset": 0,
            "componentType": 5126,
            "count": 4,
            "max": [
                0.9609504342079164,
                0.006822721101343632,
                -0.2766363322734833,
                1.0
            ],
            "min": [
                0.9609504342079164,
                0.006822689902037382,
                -0.2766363322734833,
                1.0
            ],
            "type": "VEC4"
        },
        {
            "name": "BKG1Shape#0/vertices/TEXCOORD_0",
            "bufferView": 3,
            "byteOffset": 0,
            "componentType": 5126,
            "count": 4,
            "max": [
                1.0,
                1.0
            ],
            "min": [
                0.0,
                0.6053354740142822
            ],
            "type": "VEC2"
        },
        {
            "name": "BKG1Shape#0/vertices/TEXCOORD_1",
            "bufferView": 3,
            "byteOffset": 32,
            "componentType": 5126,
            "count": 4,
            "max": [
                1.0,
                1.0
            ],
            "min": [
                0.0,
                0.605335533618927
            ],
            "type": "VEC2"
        }
    ],
    "bufferViews": [
        {
            "name": "BKGMatte/data/indices-2",
            "buffer": 0,
            "byteOffset": 224,
            "byteLength": 12,
            "target": 34963
        },
        {
            "name": "BKGMatte/data/vertices-12",
            "buffer": 0,
            "byteOffset": 64,
            "byteLength": 96,
            "byteStride": 12,
            "target": 34962
        },
        {
            "name": "BKGMatte/data/vertices-16",
            "buffer": 0,
            "byteOffset": 0,
            "byteLength": 64,
            "byteStride": 16,
            "target": 34962
        },
        {
            "name": "BKGMatte/data/vertices-8",
            "buffer": 0,
            "byteOffset": 160,
            "byteLength": 64,
            "byteStride": 8,
            "target": 34962
        }
    ],
    "buffers": [
        {
            "name": "BKGMatte/data",
            "byteLength": 236,
            "uri": "BKGMatte0.bin"
        }
    ]
}
