{
    "asset": {
        "copyright": "(C)2024 osain",
        "generator": "maya2glTF main fbbc95e5dc4d",
        "version": "2.0"
    },
    "scenes": [
        {
            "nodes": [
                0
            ]
        }
    ],
    "scene": 0,
    "nodes": [
        {
            "name": "Carpet",
            "children": [
                1
            ],
            "translation": [
                72.44522094726563,
                10.258218765258788,
                -163.8894500732422
            ]
        },
        {
            "name": "Carpet:PIV",
            "mesh": 0,
            "translation": [
                -72.44522094726563,
                -10.258218765258788,
                163.8894500732422
            ]
        }
    ],
    "meshes": [
        {
            "name": "CarpetShape",
            "extras": {
                "targetNames": []
            },
            "primitives": [
                {
                    "attributes": {
                        "NORMAL": 1,
                        "POSITION": 2,
                        "TANGENT": 3,
                        "TEXCOORD_0": 4
                    },
                    "indices": 0,
                    "mode": 4,
                    "material": 0
                }
            ]
        }
    ],
    "materials": [
        {
            "name": "lambert1",
            "pbrMetallicRoughness": {
                "baseColorFactor": [
                    0.4000000059604645,
                    0.4000000059604645,
                    0.4000000059604645,
                    1.0
                ],
                "metallicFactor": 0.0,
                "roughnessFactor": 1.0
            }
        }
    ],
    "accessors": [
        {
            "name": "CarpetShape#0/indices",
            "bufferView": 0,
            "byteOffset": 0,
            "componentType": 5123,
            "count": 5904,
            "max": [
                1049
            ],
            "min": [
                0
            ],
            "type": "SCALAR"
        },
        {
            "name": "CarpetShape#0/vertices/NORMAL",
            "bufferView": 1,
            "byteOffset": 0,
            "componentType": 5126,
            "count": 1050,
            "max": [
                0.016077648848295213,
                1.0,
                0.01609671115875244
            ],
            "min": [
                -0.016103506088256837,
                0.9998704195022584,
                -0.016047269105911256
            ],
            "type": "VEC3"
        },
        {
            "name": "CarpetShape#0/vertices/POSITION",
            "bufferView": 1,
            "byteOffset": 12600,
            "componentType": 5126,
            "count": 1050,
            "max": [
                247.10545349121098,
                10.535612106323244,
                -60.85828399658203
            ],
            "min": [
                -102.21507263183594,
                10.396810531616213,
                -266.92059326171877
            ],
            "type": "VEC3"
        },
        {
            "name": "CarpetShape#0/vertices/TANGENT",
            "bufferView": 2,
            "byteOffset": 0,
            "componentType": 5126,
            "count": 1050,
            "max": [
                0.00003905699850292877,
                0.01609671115875244,
                -0.9998704791069032,
                1.0
            ],
            "min": [
                -0.00005267400047159754,
                -0.01604726724326611,
                -1.0,
                1.0
            ],
            "type": "VEC4"
        },
        {
            "name": "CarpetShape#0/vertices/TEXCOORD_0",
            "bufferView": 3,
            "byteOffset": 0,
            "componentType": 5126,
            "count": 1050,
            "max": [
                0.5887196063995361,
                0.9980079531669616
            ],
            "min": [
                0.0011750890407711268,
                0.001992047065868974
            ],
            "type": "VEC2"
        }
    ],
    "bufferViews": [
        {
            "name": "carpet/data/indices-2",
            "buffer": 0,
            "byteOffset": 50400,
            "byteLength": 11808,
            "target": 34963
        },
        {
            "name": "carpet/data/vertices-12",
            "buffer": 0,
            "byteOffset": 16800,
            "byteLength": 25200,
            "byteStride": 12,
            "target": 34962
        },
        {
            "name": "carpet/data/vertices-16",
            "buffer": 0,
            "byteOffset": 0,
            "byteLength": 16800,
            "byteStride": 16,
            "target": 34962
        },
        {
            "name": "carpet/data/vertices-8",
            "buffer": 0,
            "byteOffset": 42000,
            "byteLength": 8400,
            "byteStride": 8,
            "target": 34962
        }
    ],
    "buffers": [
        {
            "name": "carpet/data",
            "byteLength": 62208,
            "uri": "carpet0.bin"
        }
    ]
}
