{
    "asset": {
        "copyright": "(C)2024 osain",
        "generator": "maya2glTF main fbbc95e5dc4d",
        "version": "2.0"
    },
    "scenes": [
        {
            "nodes": [
                0
            ]
        }
    ],
    "scene": 0,
    "nodes": [
        {
            "name": "Plant_Stems",
            "children": [
                1
            ],
            "translation": [
                -114.97771453857422,
                56.716888427734378,
                -209.88050842285157
            ]
        },
        {
            "name": "Plant_Stems:PIV",
            "mesh": 0,
            "translation": [
                114.97771453857422,
                -56.716888427734378,
                209.88050842285157
            ]
        }
    ],
    "meshes": [
        {
            "name": "Plant_StemsShape",
            "extras": {
                "targetNames": []
            },
            "primitives": [
                {
                    "attributes": {
                        "NORMAL": 1,
                        "POSITION": 2,
                        "TANGENT": 3,
                        "TEXCOORD_0": 4
                    },
                    "indices": 0,
                    "mode": 4,
                    "material": 0
                }
            ]
        }
    ],
    "materials": [
        {
            "name": "lambert1",
            "pbrMetallicRoughness": {
                "baseColorFactor": [
                    0.4000000059604645,
                    0.4000000059604645,
                    0.4000000059604645,
                    1.0
                ],
                "metallicFactor": 0.0,
                "roughnessFactor": 1.0
            }
        }
    ],
    "accessors": [
        {
            "name": "Plant_StemsShape#0/indices",
            "bufferView": 0,
            "byteOffset": 0,
            "componentType": 5125,
            "count": 95793,
            "max": [
                95771
            ],
            "min": [
                0
            ],
            "type": "SCALAR"
        },
        {
            "name": "Plant_StemsShape#0/vertices/NORMAL",
            "bufferView": 1,
            "byteOffset": 0,
            "componentType": 5126,
            "count": 95772,
            "max": [
                0.9999712705612184,
                0.9961278438568116,
                0.9985853433609008
            ],
            "min": [
                -1.0,
                -0.9547376036643982,
                -0.99995356798172
            ],
            "type": "VEC3"
        },
        {
            "name": "Plant_StemsShape#0/vertices/POSITION",
            "bufferView": 1,
            "byteOffset": 1149264,
            "componentType": 5126,
            "count": 95772,
            "max": [
                -103.70742797851564,
                89.30106353759766,
                -184.40769958496098
            ],
            "min": [
                -126.24800872802736,
                24.13271713256836,
                -235.3533172607422
            ],
            "type": "VEC3"
        },
        {
            "name": "Plant_StemsShape#0/vertices/TANGENT",
            "bufferView": 2,
            "byteOffset": 0,
            "componentType": 5126,
            "count": 95772,
            "max": [
                0.9994588494300842,
                0.994988739490509,
                1.0,
                1.0
            ],
            "min": [
                -0.9999488592147828,
                -0.999872624874115,
                -1.0,
                -1.0
            ],
            "type": "VEC4"
        },
        {
            "name": "Plant_StemsShape#0/vertices/TEXCOORD_0",
            "bufferView": 3,
            "byteOffset": 0,
            "componentType": 5126,
            "count": 95772,
            "max": [
                0.9397584795951844,
                0.9980079531669616
            ],
            "min": [
                0.0018757659709081056,
                0.001992047065868974
            ],
            "type": "VEC2"
        }
    ],
    "bufferViews": [
        {
            "name": "Plant_Stems/data/indices-4",
            "buffer": 0,
            "byteOffset": 4597056,
            "byteLength": 383172,
            "target": 34963
        },
        {
            "name": "Plant_Stems/data/vertices-12",
            "buffer": 0,
            "byteOffset": 1532352,
            "byteLength": 2298528,
            "byteStride": 12,
            "target": 34962
        },
        {
            "name": "Plant_Stems/data/vertices-16",
            "buffer": 0,
            "byteOffset": 0,
            "byteLength": 1532352,
            "byteStride": 16,
            "target": 34962
        },
        {
            "name": "Plant_Stems/data/vertices-8",
            "buffer": 0,
            "byteOffset": 3830880,
            "byteLength": 766176,
            "byteStride": 8,
            "target": 34962
        }
    ],
    "buffers": [
        {
            "name": "Plant_Stems/data",
            "byteLength": 4980228,
            "uri": "Plant_Stems0.bin"
        }
    ]
}
