{
    "asset": {
        "copyright": "(C)2024 osain",
        "generator": "maya2glTF main fbbc95e5dc4d",
        "version": "2.0"
    },
    "scenes": [
        {
            "nodes": [
                2,
                0
            ]
        }
    ],
    "scene": 0,
    "nodes": [
        {
            "name": "Vase_6_Main",
            "children": [
                1
            ],
            "translation": [
                -115.9687042236328,
                21.8762149810791,
                -260.57781982421877
            ]
        },
        {
            "name": "Vase_6_Main:PIV",
            "mesh": 0,
            "translation": [
                115.9687042236328,
                -21.8762149810791,
                260.57781982421877
            ]
        },
        {
            "name": "Vase_6_Beads",
            "children": [
                3
            ],
            "translation": [
                -115.96862030029296,
                21.75913429260254,
                -260.57861328125
            ]
        },
        {
            "name": "Vase_6_Beads:PIV",
            "mesh": 1,
            "translation": [
                115.96862030029296,
                -21.75913429260254,
                260.57861328125
            ]
        }
    ],
    "meshes": [
        {
            "name": "Vase_6_MainShape",
            "extras": {
                "targetNames": []
            },
            "primitives": [
                {
                    "attributes": {
                        "NORMAL": 1,
                        "POSITION": 2,
                        "TANGENT": 3,
                        "TEXCOORD_0": 4
                    },
                    "indices": 0,
                    "mode": 4,
                    "material": 0
                }
            ]
        },
        {
            "name": "Vase_6_BeadsShape",
            "extras": {
                "targetNames": []
            },
            "primitives": [
                {
                    "attributes": {
                        "NORMAL": 6,
                        "POSITION": 7,
                        "TANGENT": 8,
                        "TEXCOORD_0": 9
                    },
                    "indices": 5,
                    "mode": 4,
                    "material": 0
                }
            ]
        }
    ],
    "materials": [
        {
            "name": "lambert1",
            "pbrMetallicRoughness": {
                "baseColorFactor": [
                    0.4000000059604645,
                    0.4000000059604645,
                    0.4000000059604645,
                    1.0
                ],
                "metallicFactor": 0.0,
                "roughnessFactor": 1.0
            }
        }
    ],
    "accessors": [
        {
            "name": "Vase_6_MainShape#0/indices",
            "bufferView": 0,
            "byteOffset": 0,
            "componentType": 5123,
            "count": 70272,
            "max": [
                64516
            ],
            "min": [
                0
            ],
            "type": "SCALAR"
        },
        {
            "name": "Vase_6_MainShape#0/vertices/NORMAL",
            "bufferView": 1,
            "byteOffset": 0,
            "componentType": 5126,
            "count": 64517,
            "max": [
                1.0,
                0.999972403049469,
                1.0
            ],
            "min": [
                -1.0,
                -1.0,
                -1.0
            ],
            "type": "VEC3"
        },
        {
            "name": "Vase_6_MainShape#0/vertices/POSITION",
            "bufferView": 1,
            "byteOffset": 774204,
            "componentType": 5126,
            "count": 64517,
            "max": [
                -112.82058715820313,
                29.722278594970704,
                -257.4296875
            ],
            "min": [
                -119.11682891845705,
                14.030152320861817,
                -263.7259216308594
            ],
            "type": "VEC3"
        },
        {
            "name": "Vase_6_MainShape#0/vertices/TANGENT",
            "bufferView": 2,
            "byteOffset": 0,
            "componentType": 5126,
            "count": 64517,
            "max": [
                1.0,
                0.99997478723526,
                0.999999463558197,
                1.0
            ],
            "min": [
                -0.9999998807907105,
                -0.9999731779098512,
                -1.0,
                1.0
            ],
            "type": "VEC4"
        },
        {
            "name": "Vase_6_MainShape#0/vertices/TEXCOORD_0",
            "bufferView": 3,
            "byteOffset": 0,
            "componentType": 5126,
            "count": 64517,
            "max": [
                0.9413452744483948,
                0.9980079531669616
            ],
            "min": [
                0.0018789330497384072,
                0.001992047065868974
            ],
            "type": "VEC2"
        },
        {
            "name": "Vase_6_BeadsShape#0/indices",
            "bufferView": 4,
            "byteOffset": 0,
            "componentType": 5125,
            "count": 302784,
            "max": [
                301178
            ],
            "min": [
                0
            ],
            "type": "SCALAR"
        },
        {
            "name": "Vase_6_BeadsShape#0/vertices/NORMAL",
            "bufferView": 1,
            "byteOffset": 1548408,
            "componentType": 5126,
            "count": 301179,
            "max": [
                0.9999998211860656,
                0.9999666213989258,
                0.999990463256836
            ],
            "min": [
                -0.9999998211860656,
                -0.999972641468048,
                -0.9999905228614808
            ],
            "type": "VEC3"
        },
        {
            "name": "Vase_6_BeadsShape#0/vertices/POSITION",
            "bufferView": 1,
            "byteOffset": 5162556,
            "componentType": 5126,
            "count": 301179,
            "max": [
                -112.52809143066406,
                29.59688949584961,
                -257.1389770507813
            ],
            "min": [
                -119.40914154052736,
                13.921380043029786,
                -264.01824951171877
            ],
            "type": "VEC3"
        },
        {
            "name": "Vase_6_BeadsShape#0/vertices/TANGENT",
            "bufferView": 2,
            "byteOffset": 1032272,
            "componentType": 5126,
            "count": 301179,
            "max": [
                1.0,
                0.9999998807907105,
                1.0,
                1.0
            ],
            "min": [
                -0.9818087816238404,
                -0.9999998807907105,
                -0.9999998807907105,
                1.0
            ],
            "type": "VEC4"
        },
        {
            "name": "Vase_6_BeadsShape#0/vertices/TEXCOORD_0",
            "bufferView": 3,
            "byteOffset": 516136,
            "componentType": 5126,
            "count": 301179,
            "max": [
                0.9503418803215028,
                0.9980079531669616
            ],
            "min": [
                0.00189688999671489,
                0.0019919280894100668
            ],
            "type": "VEC2"
        }
    ],
    "bufferViews": [
        {
            "name": "Plant_Vase_6/data/indices-2",
            "buffer": 0,
            "byteOffset": 18764544,
            "byteLength": 140544,
            "target": 34963
        },
        {
            "name": "Plant_Vase_6/data/vertices-12",
            "buffer": 0,
            "byteOffset": 5851136,
            "byteLength": 8776704,
            "byteStride": 12,
            "target": 34962
        },
        {
            "name": "Plant_Vase_6/data/vertices-16",
            "buffer": 0,
            "byteOffset": 0,
            "byteLength": 5851136,
            "byteStride": 16,
            "target": 34962
        },
        {
            "name": "Plant_Vase_6/data/vertices-8",
            "buffer": 0,
            "byteOffset": 14627840,
            "byteLength": 2925568,
            "byteStride": 8,
            "target": 34962
        },
        {
            "name": "Plant_Vase_6/data/indices-4",
            "buffer": 0,
            "byteOffset": 17553408,
            "byteLength": 1211136,
            "target": 34963
        }
    ],
    "buffers": [
        {
            "name": "Plant_Vase_6/data",
            "byteLength": 18905088,
            "uri": "Plant_Vase_60.bin"
        }
    ]
}
