{
    "asset": {
        "copyright": "(C)2024 osain",
        "generator": "maya2glTF main fbbc95e5dc4d",
        "version": "2.0"
    },
    "scenes": [
        {
            "nodes": [
                2,
                0
            ]
        }
    ],
    "scene": 0,
    "nodes": [
        {
            "name": "Vase_4_Main",
            "children": [
                1
            ],
            "translation": [
                -117.15396881103516,
                13.775447845458985,
                -239.32394409179688
            ]
        },
        {
            "name": "Vase_4_Main:PIV",
            "mesh": 0,
            "translation": [
                117.15396881103516,
                -13.775447845458985,
                239.32394409179688
            ]
        },
        {
            "name": "Vase_4_Beads",
            "children": [
                3
            ],
            "translation": [
                -115.34336853027344,
                20.528799057006837,
                -240.0320281982422
            ]
        },
        {
            "name": "Vase_4_Beads:PIV",
            "mesh": 1,
            "translation": [
                115.34336853027344,
                -20.528799057006837,
                240.0320281982422
            ]
        }
    ],
    "meshes": [
        {
            "name": "Vase_4_MainShape",
            "extras": {
                "targetNames": []
            },
            "primitives": [
                {
                    "attributes": {
                        "NORMAL": 1,
                        "POSITION": 2,
                        "TANGENT": 3,
                        "TEXCOORD_0": 4
                    },
                    "indices": 0,
                    "mode": 4,
                    "material": 0
                }
            ]
        },
        {
            "name": "Vase_4_BeadsShape",
            "extras": {
                "targetNames": []
            },
            "primitives": [
                {
                    "attributes": {
                        "NORMAL": 6,
                        "POSITION": 7,
                        "TANGENT": 8,
                        "TEXCOORD_0": 9
                    },
                    "indices": 5,
                    "mode": 4,
                    "material": 0
                }
            ]
        }
    ],
    "materials": [
        {
            "name": "lambert1",
            "pbrMetallicRoughness": {
                "baseColorFactor": [
                    0.4000000059604645,
                    0.4000000059604645,
                    0.4000000059604645,
                    1.0
                ],
                "metallicFactor": 0.0,
                "roughnessFactor": 1.0
            }
        }
    ],
    "accessors": [
        {
            "name": "Vase_4_MainShape#0/indices",
            "bufferView": 0,
            "byteOffset": 0,
            "componentType": 5123,
            "count": 14760,
            "max": [
                14759
            ],
            "min": [
                0
            ],
            "type": "SCALAR"
        },
        {
            "name": "Vase_4_MainShape#0/vertices/NORMAL",
            "bufferView": 1,
            "byteOffset": 0,
            "componentType": 5126,
            "count": 14760,
            "max": [
                0.9999749064445496,
                1.0,
                0.9999949932098388
            ],
            "min": [
                -0.9999749064445496,
                -1.0,
                -0.999994933605194
            ],
            "type": "VEC3"
        },
        {
            "name": "Vase_4_MainShape#0/vertices/POSITION",
            "bufferView": 1,
            "byteOffset": 177120,
            "componentType": 5126,
            "count": 14760,
            "max": [
                -110.51226043701172,
                26.972240447998048,
                -235.13162231445313
            ],
            "min": [
                -120.17446899414064,
                14.0020751953125,
                -244.93240356445313
            ],
            "type": "VEC3"
        },
        {
            "name": "Vase_4_MainShape#0/vertices/TANGENT",
            "bufferView": 2,
            "byteOffset": 0,
            "componentType": 5126,
            "count": 14760,
            "max": [
                0.9999993443489076,
                0.9759808778762816,
                0.9999852776527404,
                1.0
            ],
            "min": [
                -0.9999871850013732,
                -0.794227123260498,
                -0.9999954700469972,
                1.0
            ],
            "type": "VEC4"
        },
        {
            "name": "Vase_4_MainShape#0/vertices/TEXCOORD_0",
            "bufferView": 3,
            "byteOffset": 0,
            "componentType": 5126,
            "count": 14760,
            "max": [
                1.0,
                1.0
            ],
            "min": [
                0.0,
                0.20734602212905885
            ],
            "type": "VEC2"
        },
        {
            "name": "Vase_4_BeadsShape#0/indices",
            "bufferView": 4,
            "byteOffset": 0,
            "componentType": 5125,
            "count": 145080,
            "max": [
                144710
            ],
            "min": [
                0
            ],
            "type": "SCALAR"
        },
        {
            "name": "Vase_4_BeadsShape#0/vertices/NORMAL",
            "bufferView": 1,
            "byteOffset": 354240,
            "componentType": 5126,
            "count": 144711,
            "max": [
                0.9999980926513672,
                0.9990615248680116,
                0.9999940395355224
            ],
            "min": [
                -0.9999980926513672,
                -0.9998985528945924,
                -0.9999939799308776
            ],
            "type": "VEC3"
        },
        {
            "name": "Vase_4_BeadsShape#0/vertices/POSITION",
            "bufferView": 1,
            "byteOffset": 2090772,
            "componentType": 5126,
            "count": 144711,
            "max": [
                -110.26805877685549,
                27.282150268554689,
                -234.8935699462891
            ],
            "min": [
                -120.4186782836914,
                13.775447845458985,
                -245.17047119140626
            ],
            "type": "VEC3"
        },
        {
            "name": "Vase_4_BeadsShape#0/vertices/TANGENT",
            "bufferView": 2,
            "byteOffset": 236160,
            "componentType": 5126,
            "count": 144711,
            "max": [
                0.9999995231628418,
                1.0,
                0.9999990463256836,
                1.0
            ],
            "min": [
                -0.9998540878295898,
                -1.0,
                -0.9999989867210388,
                1.0
            ],
            "type": "VEC4"
        },
        {
            "name": "Vase_4_BeadsShape#0/vertices/TEXCOORD_0",
            "bufferView": 3,
            "byteOffset": 118080,
            "componentType": 5126,
            "count": 144711,
            "max": [
                0.919916808605194,
                0.9980079531669616
            ],
            "min": [
                0.0018361610127612949,
                0.001992047065868974
            ],
            "type": "VEC2"
        }
    ],
    "bufferViews": [
        {
            "name": "Plant_Vase_4/data/indices-2",
            "buffer": 0,
            "byteOffset": 8234928,
            "byteLength": 29520,
            "target": 34963
        },
        {
            "name": "Plant_Vase_4/data/vertices-12",
            "buffer": 0,
            "byteOffset": 2551536,
            "byteLength": 3827304,
            "byteStride": 12,
            "target": 34962
        },
        {
            "name": "Plant_Vase_4/data/vertices-16",
            "buffer": 0,
            "byteOffset": 0,
            "byteLength": 2551536,
            "byteStride": 16,
            "target": 34962
        },
        {
            "name": "Plant_Vase_4/data/vertices-8",
            "buffer": 0,
            "byteOffset": 6378840,
            "byteLength": 1275768,
            "byteStride": 8,
            "target": 34962
        },
        {
            "name": "Plant_Vase_4/data/indices-4",
            "buffer": 0,
            "byteOffset": 7654608,
            "byteLength": 580320,
            "target": 34963
        }
    ],
    "buffers": [
        {
            "name": "Plant_Vase_4/data",
            "byteLength": 8264448,
            "uri": "Plant_Vase_40.bin"
        }
    ]
}
