{
    "asset": {
        "copyright": "(C)2024 osain",
        "generator": "maya2glTF main fbbc95e5dc4d",
        "version": "2.0"
    },
    "scenes": [
        {
            "nodes": [
                2,
                0
            ]
        }
    ],
    "scene": 0,
    "nodes": [
        {
            "name": "Vase_5_Main",
            "children": [
                1
            ],
            "translation": [
                -115.96878051757813,
                21.81734275817871,
                -251.220947265625
            ]
        },
        {
            "name": "Vase_5_Main:PIV",
            "mesh": 0,
            "translation": [
                115.96878051757813,
                -21.81734275817871,
                251.220947265625
            ]
        },
        {
            "name": "Vase_5_Beads",
            "children": [
                3
            ],
            "translation": [
                -115.96878051757813,
                21.732646942138673,
                -251.2204132080078
            ]
        },
        {
            "name": "Vase_5_Beads:PIV",
            "mesh": 1,
            "translation": [
                115.96878051757813,
                -21.732646942138673,
                251.2204132080078
            ]
        }
    ],
    "meshes": [
        {
            "name": "Vase_5_MainShape",
            "extras": {
                "targetNames": []
            },
            "primitives": [
                {
                    "attributes": {
                        "NORMAL": 1,
                        "POSITION": 2,
                        "TANGENT": 3,
                        "TEXCOORD_0": 4
                    },
                    "indices": 0,
                    "mode": 4,
                    "material": 0
                }
            ]
        },
        {
            "name": "Vase_5_BeadsShape",
            "extras": {
                "targetNames": []
            },
            "primitives": [
                {
                    "attributes": {
                        "NORMAL": 6,
                        "POSITION": 7,
                        "TANGENT": 8,
                        "TEXCOORD_0": 9
                    },
                    "indices": 5,
                    "mode": 4,
                    "material": 0
                }
            ]
        }
    ],
    "materials": [
        {
            "name": "lambert1",
            "pbrMetallicRoughness": {
                "baseColorFactor": [
                    0.4000000059604645,
                    0.4000000059604645,
                    0.4000000059604645,
                    1.0
                ],
                "metallicFactor": 0.0,
                "roughnessFactor": 1.0
            }
        }
    ],
    "accessors": [
        {
            "name": "Vase_5_MainShape#0/indices",
            "bufferView": 0,
            "byteOffset": 0,
            "componentType": 5123,
            "count": 66432,
            "max": [
                60295
            ],
            "min": [
                0
            ],
            "type": "SCALAR"
        },
        {
            "name": "Vase_5_MainShape#0/vertices/NORMAL",
            "bufferView": 1,
            "byteOffset": 0,
            "componentType": 5126,
            "count": 60296,
            "max": [
                1.0,
                0.9998698234558106,
                1.0
            ],
            "min": [
                -1.0,
                -1.0,
                -1.0
            ],
            "type": "VEC3"
        },
        {
            "name": "Vase_5_MainShape#0/vertices/POSITION",
            "bufferView": 1,
            "byteOffset": 723552,
            "componentType": 5126,
            "count": 60296,
            "max": [
                -112.89382934570313,
                29.60454559326172,
                -248.14598083496098
            ],
            "min": [
                -119.0437469482422,
                14.03013801574707,
                -254.2958984375
            ],
            "type": "VEC3"
        },
        {
            "name": "Vase_5_MainShape#0/vertices/TANGENT",
            "bufferView": 2,
            "byteOffset": 0,
            "componentType": 5126,
            "count": 60296,
            "max": [
                1.0,
                0.99990975856781,
                1.0,
                1.0
            ],
            "min": [
                -1.0,
                -0.9999077916145324,
                -1.0,
                1.0
            ],
            "type": "VEC4"
        },
        {
            "name": "Vase_5_MainShape#0/vertices/TEXCOORD_0",
            "bufferView": 3,
            "byteOffset": 0,
            "componentType": 5126,
            "count": 60296,
            "max": [
                0.9849379062652588,
                0.9980079531669616
            ],
            "min": [
                0.001965943956747651,
                0.0019919280894100668
            ],
            "type": "VEC2"
        },
        {
            "name": "Vase_5_BeadsShape#0/indices",
            "bufferView": 4,
            "byteOffset": 0,
            "componentType": 5125,
            "count": 1073280,
            "max": [
                1071229
            ],
            "min": [
                0
            ],
            "type": "SCALAR"
        },
        {
            "name": "Vase_5_BeadsShape#0/vertices/NORMAL",
            "bufferView": 1,
            "byteOffset": 1447104,
            "componentType": 5126,
            "count": 1071230,
            "max": [
                0.9999982118606569,
                0.9999994039535524,
                0.999996542930603
            ],
            "min": [
                -0.9999998807907105,
                -0.9999971985816956,
                -0.9999947547912598
            ],
            "type": "VEC3"
        },
        {
            "name": "Vase_5_BeadsShape#0/vertices/POSITION",
            "bufferView": 1,
            "byteOffset": 14301864,
            "componentType": 5126,
            "count": 1071230,
            "max": [
                -112.81867218017578,
                29.535383224487306,
                -248.07083129882813
            ],
            "min": [
                -119.11890411376952,
                13.929911613464356,
                -254.37001037597657
            ],
            "type": "VEC3"
        },
        {
            "name": "Vase_5_BeadsShape#0/vertices/TANGENT",
            "bufferView": 2,
            "byteOffset": 964736,
            "componentType": 5126,
            "count": 1071230,
            "max": [
                0.9999999403953552,
                1.0,
                0.9999998807907105,
                1.0
            ],
            "min": [
                -0.9999926686286926,
                -0.9999995827674866,
                -0.999999701976776,
                -1.0
            ],
            "type": "VEC4"
        },
        {
            "name": "Vase_5_BeadsShape#0/vertices/TEXCOORD_0",
            "bufferView": 3,
            "byteOffset": 482368,
            "componentType": 5126,
            "count": 1071230,
            "max": [
                0.9122936725616456,
                0.9980079531669616
            ],
            "min": [
                0.0018209459958598016,
                0.001991986995562911
            ],
            "type": "VEC2"
        }
    ],
    "bufferViews": [
        {
            "name": "Plant_Vase_5/data/indices-2",
            "buffer": 0,
            "byteOffset": 58606368,
            "byteLength": 132864,
            "target": 34963
        },
        {
            "name": "Plant_Vase_5/data/vertices-12",
            "buffer": 0,
            "byteOffset": 18104416,
            "byteLength": 27156624,
            "byteStride": 12,
            "target": 34962
        },
        {
            "name": "Plant_Vase_5/data/vertices-16",
            "buffer": 0,
            "byteOffset": 0,
            "byteLength": 18104416,
            "byteStride": 16,
            "target": 34962
        },
        {
            "name": "Plant_Vase_5/data/vertices-8",
            "buffer": 0,
            "byteOffset": 45261040,
            "byteLength": 9052208,
            "byteStride": 8,
            "target": 34962
        },
        {
            "name": "Plant_Vase_5/data/indices-4",
            "buffer": 0,
            "byteOffset": 54313248,
            "byteLength": 4293120,
            "target": 34963
        }
    ],
    "buffers": [
        {
            "name": "Plant_Vase_5/data",
            "byteLength": 58739232,
            "uri": "Plant_Vase_50.bin"
        }
    ]
}
