{
    "asset": {
        "copyright": "(C)2024 osain",
        "generator": "maya2glTF main fbbc95e5dc4d",
        "version": "2.0"
    },
    "scenes": [
        {
            "nodes": [
                2,
                0
            ]
        }
    ],
    "scene": 0,
    "nodes": [
        {
            "name": "Vase_1_Beads_Main",
            "children": [
                1
            ],
            "translation": [
                -114.95362091064452,
                13.775447845458985,
                -195.38613891601566
            ]
        },
        {
            "name": "Vase_1_Beads_Main:PIV",
            "mesh": 0,
            "translation": [
                114.95362091064452,
                -13.775447845458985,
                195.38613891601566
            ]
        },
        {
            "name": "Vase_1_Beads",
            "children": [
                3
            ],
            "translation": [
                -115.34342193603516,
                20.528799057006837,
                -195.46202087402345
            ]
        },
        {
            "name": "Vase_1_Beads:PIV",
            "mesh": 1,
            "translation": [
                115.34342193603516,
                -20.528799057006837,
                195.46202087402345
            ]
        }
    ],
    "meshes": [
        {
            "name": "Vase_1_Beads_MainShape",
            "extras": {
                "targetNames": []
            },
            "primitives": [
                {
                    "attributes": {
                        "NORMAL": 1,
                        "POSITION": 2,
                        "TANGENT": 3,
                        "TEXCOORD_0": 4,
                        "TEXCOORD_1": 5
                    },
                    "indices": 0,
                    "mode": 4,
                    "material": 0
                }
            ]
        },
        {
            "name": "Vase_1_BeadsShape",
            "extras": {
                "targetNames": []
            },
            "primitives": [
                {
                    "attributes": {
                        "NORMAL": 7,
                        "POSITION": 8,
                        "TANGENT": 9,
                        "TEXCOORD_0": 10
                    },
                    "indices": 6,
                    "mode": 4,
                    "material": 0
                }
            ]
        }
    ],
    "materials": [
        {
            "name": "lambert1",
            "pbrMetallicRoughness": {
                "baseColorFactor": [
                    0.4000000059604645,
                    0.4000000059604645,
                    0.4000000059604645,
                    1.0
                ],
                "metallicFactor": 0.0,
                "roughnessFactor": 1.0
            }
        }
    ],
    "accessors": [
        {
            "name": "Vase_1_Beads_MainShape#0/indices",
            "bufferView": 0,
            "byteOffset": 0,
            "componentType": 5123,
            "count": 14760,
            "max": [
                14759
            ],
            "min": [
                0
            ],
            "type": "SCALAR"
        },
        {
            "name": "Vase_1_Beads_MainShape#0/vertices/NORMAL",
            "bufferView": 1,
            "byteOffset": 0,
            "componentType": 5126,
            "count": 14760,
            "max": [
                0.9999749064445496,
                1.0,
                0.9999950528144836
            ],
            "min": [
                -0.9999749064445496,
                -1.0,
                -0.9999949932098388
            ],
            "type": "VEC3"
        },
        {
            "name": "Vase_1_Beads_MainShape#0/vertices/POSITION",
            "bufferView": 1,
            "byteOffset": 177120,
            "componentType": 5126,
            "count": 14760,
            "max": [
                -110.51231384277344,
                26.972240447998048,
                -190.5616149902344
            ],
            "min": [
                -120.17452239990236,
                14.002074241638184,
                -200.3623809814453
            ],
            "type": "VEC3"
        },
        {
            "name": "Vase_1_Beads_MainShape#0/vertices/TANGENT",
            "bufferView": 2,
            "byteOffset": 0,
            "componentType": 5126,
            "count": 14760,
            "max": [
                0.9999989867210388,
                0.9673652052879334,
                0.9999831914901732,
                1.0
            ],
            "min": [
                -0.999892830848694,
                -0.7942650318145752,
                -0.999983251094818,
                1.0
            ],
            "type": "VEC4"
        },
        {
            "name": "Vase_1_Beads_MainShape#0/vertices/TEXCOORD_0",
            "bufferView": 3,
            "byteOffset": 0,
            "componentType": 5126,
            "count": 14760,
            "max": [
                1.0,
                1.0
            ],
            "min": [
                0.0,
                0.20714539289474488
            ],
            "type": "VEC2"
        },
        {
            "name": "Vase_1_Beads_MainShape#0/vertices/TEXCOORD_1",
            "bufferView": 3,
            "byteOffset": 118080,
            "componentType": 5126,
            "count": 14760,
            "max": [
                42.152381896972659,
                43.75690841674805
            ],
            "min": [
                -42.15238952636719,
                -41.75690460205078
            ],
            "type": "VEC2"
        },
        {
            "name": "Vase_1_BeadsShape#0/indices",
            "bufferView": 4,
            "byteOffset": 0,
            "componentType": 5125,
            "count": 145080,
            "max": [
                144731
            ],
            "min": [
                0
            ],
            "type": "SCALAR"
        },
        {
            "name": "Vase_1_BeadsShape#0/vertices/NORMAL",
            "bufferView": 1,
            "byteOffset": 354240,
            "componentType": 5126,
            "count": 144732,
            "max": [
                0.999998152256012,
                0.9990615248680116,
                0.9999939799308776
            ],
            "min": [
                -0.999998152256012,
                -0.9998985528945924,
                -0.9999939799308776
            ],
            "type": "VEC3"
        },
        {
            "name": "Vase_1_BeadsShape#0/vertices/POSITION",
            "bufferView": 1,
            "byteOffset": 2091024,
            "componentType": 5126,
            "count": 144732,
            "max": [
                -110.2681121826172,
                27.282150268554689,
                -190.3235626220703
            ],
            "min": [
                -120.41873168945313,
                13.775447845458985,
                -200.6004638671875
            ],
            "type": "VEC3"
        },
        {
            "name": "Vase_1_BeadsShape#0/vertices/TANGENT",
            "bufferView": 2,
            "byteOffset": 236160,
            "componentType": 5126,
            "count": 144732,
            "max": [
                0.9999996423721314,
                1.0,
                0.9999989867210388,
                1.0
            ],
            "min": [
                -0.9998540282249452,
                -1.0,
                -0.9999989867210388,
                1.0
            ],
            "type": "VEC4"
        },
        {
            "name": "Vase_1_BeadsShape#0/vertices/TEXCOORD_0",
            "bufferView": 3,
            "byteOffset": 236160,
            "componentType": 5126,
            "count": 144732,
            "max": [
                0.917765200138092,
                0.9980079531669616
            ],
            "min": [
                0.0018318670336157084,
                0.001991868019104004
            ],
            "type": "VEC2"
        }
    ],
    "bufferViews": [
        {
            "name": "Plant_Vase_1/data/indices-2",
            "buffer": 0,
            "byteOffset": 8354016,
            "byteLength": 29520,
            "target": 34963
        },
        {
            "name": "Plant_Vase_1/data/vertices-12",
            "buffer": 0,
            "byteOffset": 2551872,
            "byteLength": 3827808,
            "byteStride": 12,
            "target": 34962
        },
        {
            "name": "Plant_Vase_1/data/vertices-16",
            "buffer": 0,
            "byteOffset": 0,
            "byteLength": 2551872,
            "byteStride": 16,
            "target": 34962
        },
        {
            "name": "Plant_Vase_1/data/vertices-8",
            "buffer": 0,
            "byteOffset": 6379680,
            "byteLength": 1394016,
            "byteStride": 8,
            "target": 34962
        },
        {
            "name": "Plant_Vase_1/data/indices-4",
            "buffer": 0,
            "byteOffset": 7773696,
            "byteLength": 580320,
            "target": 34963
        }
    ],
    "buffers": [
        {
            "name": "Plant_Vase_1/data",
            "byteLength": 8383536,
            "uri": "Plant_Vase_10.bin"
        }
    ]
}
