{
    "asset": {
        "copyright": "(C)2024 osain",
        "generator": "maya2glTF main fbbc95e5dc4d",
        "version": "2.0"
    },
    "scenes": [
        {
            "nodes": [
                8,
                6,
                4,
                2,
                0
            ]
        }
    ],
    "scene": 0,
    "nodes": [
        {
            "name": "Wall_2",
            "children": [
                1
            ],
            "translation": [
                74.64459228515625,
                129.13072204589845,
                -1.351769208908081
            ]
        },
        {
            "name": "Wall_2:PIV",
            "mesh": 0,
            "translation": [
                -74.64459228515625,
                -129.13072204589845,
                1.351769208908081
            ]
        },
        {
            "name": "Wall_1",
            "children": [
                3
            ],
            "translation": [
                74.64459228515625,
                129.13072204589845,
                -1.351769208908081
            ]
        },
        {
            "name": "Wall_1:PIV",
            "mesh": 1,
            "translation": [
                -74.64459228515625,
                -129.13072204589845,
                1.351769208908081
            ]
        },
        {
            "name": "Wall_0",
            "children": [
                5
            ],
            "translation": [
                74.64459228515625,
                129.13072204589845,
                -1.351769208908081
            ]
        },
        {
            "name": "Wall_0:PIV",
            "mesh": 2,
            "translation": [
                -74.64459228515625,
                -129.13072204589845,
                1.351769208908081
            ]
        },
        {
            "name": "Floor",
            "children": [
                7
            ],
            "translation": [
                74.64459228515625,
                129.13072204589845,
                -1.351769208908081
            ]
        },
        {
            "name": "Floor:PIV",
            "mesh": 3,
            "translation": [
                -74.64459228515625,
                -129.13072204589845,
                1.351769208908081
            ]
        },
        {
            "name": "Ceiling",
            "children": [
                9
            ],
            "translation": [
                85.69822692871094,
                277.9610900878906,
                -3.429245948791504
            ]
        },
        {
            "name": "Ceiling:PIV",
            "mesh": 4,
            "translation": [
                -85.69822692871094,
                -277.9610900878906,
                3.429245948791504
            ]
        }
    ],
    "meshes": [
        {
            "name": "Wall_2Shape",
            "extras": {
                "targetNames": []
            },
            "primitives": [
                {
                    "attributes": {
                        "NORMAL": 1,
                        "POSITION": 2,
                        "TANGENT": 3,
                        "TEXCOORD_0": 4,
                        "TEXCOORD_1": 5
                    },
                    "indices": 0,
                    "mode": 4,
                    "material": 0
                }
            ]
        },
        {
            "name": "Wall_1Shape",
            "extras": {
                "targetNames": []
            },
            "primitives": [
                {
                    "attributes": {
                        "NORMAL": 7,
                        "POSITION": 8,
                        "TANGENT": 9,
                        "TEXCOORD_0": 10,
                        "TEXCOORD_1": 11
                    },
                    "indices": 6,
                    "mode": 4,
                    "material": 0
                }
            ]
        },
        {
            "name": "Wall_0Shape",
            "extras": {
                "targetNames": []
            },
            "primitives": [
                {
                    "attributes": {
                        "NORMAL": 13,
                        "POSITION": 14,
                        "TANGENT": 15,
                        "TEXCOORD_0": 16,
                        "TEXCOORD_1": 17
                    },
                    "indices": 12,
                    "mode": 4,
                    "material": 0
                }
            ]
        },
        {
            "name": "FloorShape",
            "extras": {
                "targetNames": []
            },
            "primitives": [
                {
                    "attributes": {
                        "NORMAL": 19,
                        "POSITION": 20,
                        "TANGENT": 21,
                        "TEXCOORD_0": 22,
                        "TEXCOORD_1": 23
                    },
                    "indices": 18,
                    "mode": 4,
                    "material": 0
                }
            ]
        },
        {
            "name": "CeilingShape",
            "extras": {
                "targetNames": []
            },
            "primitives": [
                {
                    "attributes": {
                        "NORMAL": 25,
                        "POSITION": 26,
                        "TANGENT": 27,
                        "TEXCOORD_0": 28
                    },
                    "indices": 24,
                    "mode": 4,
                    "material": 0
                }
            ]
        }
    ],
    "materials": [
        {
            "name": "lambert1",
            "pbrMetallicRoughness": {
                "baseColorFactor": [
                    0.4000000059604645,
                    0.4000000059604645,
                    0.4000000059604645,
                    1.0
                ],
                "metallicFactor": 0.0,
                "roughnessFactor": 1.0
            }
        }
    ],
    "accessors": [
        {
            "name": "Wall_2Shape#0/indices",
            "bufferView": 0,
            "byteOffset": 0,
            "componentType": 5123,
            "count": 222,
            "max": [
                221
            ],
            "min": [
                0
            ],
            "type": "SCALAR"
        },
        {
            "name": "Wall_2Shape#0/vertices/NORMAL",
            "bufferView": 1,
            "byteOffset": 0,
            "componentType": 5126,
            "count": 222,
            "max": [
                1.0,
                1.0,
                1.0
            ],
            "min": [
                -1.0,
                -1.0,
                -1.0
            ],
            "type": "VEC3"
        },
        {
            "name": "Wall_2Shape#0/vertices/POSITION",
            "bufferView": 1,
            "byteOffset": 2664,
            "componentType": 5126,
            "count": 222,
            "max": [
                289.8624572753906,
                274.39398193359377,
                345.8176574707031
            ],
            "min": [
                -140.57318115234376,
                -16.13251304626465,
                -348.52117919921877
            ],
            "type": "VEC3"
        },
        {
            "name": "Wall_2Shape#0/vertices/TANGENT",
            "bufferView": 2,
            "byteOffset": 0,
            "componentType": 5126,
            "count": 222,
            "max": [
                1.0,
                1.0,
                1.0,
                1.0
            ],
            "min": [
                0.0,
                -1.0,
                -1.0,
                1.0
            ],
            "type": "VEC4"
        },
        {
            "name": "Wall_2Shape#0/vertices/TEXCOORD_0",
            "bufferView": 3,
            "byteOffset": 0,
            "componentType": 5126,
            "count": 222,
            "max": [
                0.9490817189216614,
                0.9980079531669616
            ],
            "min": [
                0.001894374960102141,
                0.001991986995562911
            ],
            "type": "VEC2"
        },
        {
            "name": "Wall_2Shape#0/vertices/TEXCOORD_1",
            "bufferView": 3,
            "byteOffset": 1776,
            "componentType": 5126,
            "count": 222,
            "max": [
                0.0,
                1.0
            ],
            "min": [
                0.0,
                1.0
            ],
            "type": "VEC2"
        },
        {
            "name": "Wall_1Shape#0/indices",
            "bufferView": 0,
            "byteOffset": 444,
            "componentType": 5123,
            "count": 6,
            "max": [
                5
            ],
            "min": [
                0
            ],
            "type": "SCALAR"
        },
        {
            "name": "Wall_1Shape#0/vertices/NORMAL",
            "bufferView": 1,
            "byteOffset": 5328,
            "componentType": 5126,
            "count": 6,
            "max": [
                0.0,
                0.0,
                1.0
            ],
            "min": [
                0.0,
                0.0,
                1.0
            ],
            "type": "VEC3"
        },
        {
            "name": "Wall_1Shape#0/vertices/POSITION",
            "bufferView": 1,
            "byteOffset": 5400,
            "componentType": 5126,
            "count": 6,
            "max": [
                289.8624572753906,
                274.3939514160156,
                -333.5212097167969
            ],
            "min": [
                -125.60887908935549,
                1.4751566648483277,
                -333.5212097167969
            ],
            "type": "VEC3"
        },
        {
            "name": "Wall_1Shape#0/vertices/TANGENT",
            "bufferView": 2,
            "byteOffset": 3552,
            "componentType": 5126,
            "count": 6,
            "max": [
                0.0,
                1.0,
                0.0,
                1.0
            ],
            "min": [
                0.0,
                1.0,
                0.0,
                1.0
            ],
            "type": "VEC4"
        },
        {
            "name": "Wall_1Shape#0/vertices/TEXCOORD_0",
            "bufferView": 3,
            "byteOffset": 3552,
            "componentType": 5126,
            "count": 6,
            "max": [
                0.7428816556930542,
                0.9980079531669616
            ],
            "min": [
                0.0014827980194240809,
                0.001991986995562911
            ],
            "type": "VEC2"
        },
        {
            "name": "Wall_1Shape#0/vertices/TEXCOORD_1",
            "bufferView": 3,
            "byteOffset": 3600,
            "componentType": 5126,
            "count": 6,
            "max": [
                0.0,
                1.0
            ],
            "min": [
                0.0,
                1.0
            ],
            "type": "VEC2"
        },
        {
            "name": "Wall_0Shape#0/indices",
            "bufferView": 0,
            "byteOffset": 456,
            "componentType": 5123,
            "count": 6,
            "max": [
                5
            ],
            "min": [
                0
            ],
            "type": "SCALAR"
        },
        {
            "name": "Wall_0Shape#0/vertices/NORMAL",
            "bufferView": 1,
            "byteOffset": 5472,
            "componentType": 5126,
            "count": 6,
            "max": [
                -1.0,
                0.0,
                0.0
            ],
            "min": [
                -1.0,
                0.0,
                0.0
            ],
            "type": "VEC3"
        },
        {
            "name": "Wall_0Shape#0/vertices/POSITION",
            "bufferView": 1,
            "byteOffset": 5544,
            "componentType": 5126,
            "count": 6,
            "max": [
                274.8982543945313,
                274.3939514160156,
                330.817626953125
            ],
            "min": [
                274.8982543945313,
                1.475156545639038,
                -333.5212097167969
            ],
            "type": "VEC3"
        },
        {
            "name": "Wall_0Shape#0/vertices/TANGENT",
            "bufferView": 2,
            "byteOffset": 3648,
            "componentType": 5126,
            "count": 6,
            "max": [
                0.0,
                1.0,
                0.0,
                1.0
            ],
            "min": [
                0.0,
                1.0,
                0.0,
                1.0
            ],
            "type": "VEC4"
        },
        {
            "name": "Wall_0Shape#0/vertices/TEXCOORD_0",
            "bufferView": 3,
            "byteOffset": 3648,
            "componentType": 5126,
            "count": 6,
            "max": [
                0.4656977951526642,
                0.9980079531669616
            ],
            "min": [
                0.000929536996409297,
                0.001991986995562911
            ],
            "type": "VEC2"
        },
        {
            "name": "Wall_0Shape#0/vertices/TEXCOORD_1",
            "bufferView": 3,
            "byteOffset": 3696,
            "componentType": 5126,
            "count": 6,
            "max": [
                0.0,
                1.0
            ],
            "min": [
                0.0,
                1.0
            ],
            "type": "VEC2"
        },
        {
            "name": "FloorShape#0/indices",
            "bufferView": 0,
            "byteOffset": 468,
            "componentType": 5123,
            "count": 30,
            "max": [
                29
            ],
            "min": [
                0
            ],
            "type": "SCALAR"
        },
        {
            "name": "FloorShape#0/vertices/NORMAL",
            "bufferView": 1,
            "byteOffset": 5616,
            "componentType": 5126,
            "count": 30,
            "max": [
                1.0,
                1.0,
                1.0
            ],
            "min": [
                -1.0,
                0.0,
                -1.0
            ],
            "type": "VEC3"
        },
        {
            "name": "FloorShape#0/vertices/POSITION",
            "bufferView": 1,
            "byteOffset": 5976,
            "componentType": 5126,
            "count": 30,
            "max": [
                274.8982543945313,
                10.27899169921875,
                330.817626953125
            ],
            "min": [
                -125.60887908935549,
                1.475156545639038,
                -333.5212097167969
            ],
            "type": "VEC3"
        },
        {
            "name": "FloorShape#0/vertices/TANGENT",
            "bufferView": 2,
            "byteOffset": 3744,
            "componentType": 5126,
            "count": 30,
            "max": [
                1.0,
                1.0,
                0.0,
                1.0
            ],
            "min": [
                -1.0,
                -1.0,
                -1.0,
                1.0
            ],
            "type": "VEC4"
        },
        {
            "name": "FloorShape#0/vertices/TEXCOORD_0",
            "bufferView": 3,
            "byteOffset": 3744,
            "componentType": 5126,
            "count": 30,
            "max": [
                1.0,
                1.0
            ],
            "min": [
                0.0,
                0.0
            ],
            "type": "VEC2"
        },
        {
            "name": "FloorShape#0/vertices/TEXCOORD_1",
            "bufferView": 3,
            "byteOffset": 3984,
            "componentType": 5126,
            "count": 30,
            "max": [
                0.0,
                1.0
            ],
            "min": [
                0.0,
                1.0
            ],
            "type": "VEC2"
        },
        {
            "name": "CeilingShape#0/indices",
            "bufferView": 0,
            "byteOffset": 528,
            "componentType": 5123,
            "count": 36,
            "max": [
                23
            ],
            "min": [
                0
            ],
            "type": "SCALAR"
        },
        {
            "name": "CeilingShape#0/vertices/NORMAL",
            "bufferView": 1,
            "byteOffset": 6336,
            "componentType": 5126,
            "count": 24,
            "max": [
                1.0,
                1.0,
                1.0
            ],
            "min": [
                -1.0,
                -1.0,
                -1.0
            ],
            "type": "VEC3"
        },
        {
            "name": "CeilingShape#0/vertices/POSITION",
            "bufferView": 1,
            "byteOffset": 6624,
            "componentType": 5126,
            "count": 24,
            "max": [
                314.9142761230469,
                277.9610900878906,
                331.57073974609377
            ],
            "min": [
                -143.517822265625,
                274.405517578125,
                -338.4292297363281
            ],
            "type": "VEC3"
        },
        {
            "name": "CeilingShape#0/vertices/TANGENT",
            "bufferView": 2,
            "byteOffset": 4224,
            "componentType": 5126,
            "count": 24,
            "max": [
                1.0,
                1.0,
                0.0,
                1.0
            ],
            "min": [
                0.0,
                -1.0,
                0.0,
                1.0
            ],
            "type": "VEC4"
        },
        {
            "name": "CeilingShape#0/vertices/TEXCOORD_0",
            "bufferView": 3,
            "byteOffset": 4224,
            "componentType": 5126,
            "count": 24,
            "max": [
                0.9980080723762512,
                0.9984750747680664
            ],
            "min": [
                0.0019920319318771364,
                0.23600709438323978
            ],
            "type": "VEC2"
        }
    ],
    "bufferViews": [
        {
            "name": "Room/data/indices-2",
            "buffer": 0,
            "byteOffset": 15936,
            "byteLength": 600,
            "target": 34963
        },
        {
            "name": "Room/data/vertices-12",
            "buffer": 0,
            "byteOffset": 4608,
            "byteLength": 6912,
            "byteStride": 12,
            "target": 34962
        },
        {
            "name": "Room/data/vertices-16",
            "buffer": 0,
            "byteOffset": 0,
            "byteLength": 4608,
            "byteStride": 16,
            "target": 34962
        },
        {
            "name": "Room/data/vertices-8",
            "buffer": 0,
            "byteOffset": 11520,
            "byteLength": 4416,
            "byteStride": 8,
            "target": 34962
        }
    ],
    "buffers": [
        {
            "name": "Room/data",
            "byteLength": 16536,
            "uri": "Room0.bin"
        }
    ]
}
