{
    "asset": {
        "copyright": "(C)2024 osain",
        "generator": "maya2glTF main fbbc95e5dc4d",
        "version": "2.0"
    },
    "scenes": [
        {
            "nodes": [
                4,
                2,
                0
            ]
        }
    ],
    "scene": 0,
    "nodes": [
        {
            "name": "Shades_Strap",
            "children": [
                1
            ],
            "translation": [
                -121.67355346679688,
                222.5166931152344,
                -265.2334899902344
            ]
        },
        {
            "name": "Shades_Strap:PIV",
            "mesh": 0,
            "translation": [
                121.67355346679688,
                -222.5166931152344,
                265.2334899902344
            ]
        },
        {
            "name": "Shades_Belt",
            "children": [
                3
            ],
            "translation": [
                -121.67095184326172,
                222.50833129882813,
                -265.2466430664063
            ]
        },
        {
            "name": "Shades_Belt:PIV",
            "mesh": 1,
            "translation": [
                121.67095184326172,
                -222.50833129882813,
                265.2466430664063
            ]
        },
        {
            "name": "Shades1",
            "children": [
                5
            ],
            "translation": [
                -121.72315216064452,
                235.96641540527345,
                -73.56023406982422
            ]
        },
        {
            "name": "Shades1:PIV",
            "mesh": 2,
            "translation": [
                121.72315216064452,
                -235.96641540527345,
                73.56023406982422
            ]
        }
    ],
    "meshes": [
        {
            "name": "Shades_StrapShape",
            "extras": {
                "targetNames": []
            },
            "primitives": [
                {
                    "attributes": {
                        "NORMAL": 1,
                        "POSITION": 2,
                        "TANGENT": 3,
                        "TEXCOORD_0": 4
                    },
                    "indices": 0,
                    "mode": 4,
                    "material": 0
                }
            ]
        },
        {
            "name": "Shades_BeltShape",
            "extras": {
                "targetNames": []
            },
            "primitives": [
                {
                    "attributes": {
                        "NORMAL": 6,
                        "POSITION": 7,
                        "TANGENT": 8,
                        "TEXCOORD_0": 9
                    },
                    "indices": 5,
                    "mode": 4,
                    "material": 0
                }
            ]
        },
        {
            "name": "Shades1Shape",
            "extras": {
                "targetNames": []
            },
            "primitives": [
                {
                    "attributes": {
                        "NORMAL": 11,
                        "POSITION": 12,
                        "TANGENT": 13,
                        "TEXCOORD_0": 14
                    },
                    "indices": 10,
                    "mode": 4,
                    "material": 0
                }
            ]
        }
    ],
    "materials": [
        {
            "name": "lambert1",
            "pbrMetallicRoughness": {
                "baseColorFactor": [
                    0.4000000059604645,
                    0.4000000059604645,
                    0.4000000059604645,
                    1.0
                ],
                "metallicFactor": 0.0,
                "roughnessFactor": 1.0
            }
        }
    ],
    "accessors": [
        {
            "name": "Shades_StrapShape#0/indices",
            "bufferView": 0,
            "byteOffset": 0,
            "componentType": 5123,
            "count": 3744,
            "max": [
                3627
            ],
            "min": [
                0
            ],
            "type": "SCALAR"
        },
        {
            "name": "Shades_StrapShape#0/vertices/NORMAL",
            "bufferView": 1,
            "byteOffset": 0,
            "componentType": 5126,
            "count": 3628,
            "max": [
                0.9996654987335204,
                1.0,
                0.99996680021286
            ],
            "min": [
                -0.9996654987335204,
                -1.0,
                -0.99996680021286
            ],
            "type": "VEC3"
        },
        {
            "name": "Shades_StrapShape#0/vertices/POSITION",
            "bufferView": 1,
            "byteOffset": 43536,
            "componentType": 5126,
            "count": 3628,
            "max": [
                -120.03998565673828,
                273.7600402832031,
                -264.8550415039063
            ],
            "min": [
                -123.3069839477539,
                171.27337646484376,
                -265.6070251464844
            ],
            "type": "VEC3"
        },
        {
            "name": "Shades_StrapShape#0/vertices/TANGENT",
            "bufferView": 2,
            "byteOffset": 0,
            "componentType": 5126,
            "count": 3628,
            "max": [
                0.4799387753009796,
                0.17687182128429414,
                1.0,
                -1.0
            ],
            "min": [
                -1.0,
                -0.17687182128429414,
                -1.0,
                -1.0
            ],
            "type": "VEC4"
        },
        {
            "name": "Shades_StrapShape#0/vertices/TEXCOORD_0",
            "bufferView": 3,
            "byteOffset": 0,
            "componentType": 5126,
            "count": 3628,
            "max": [
                0.13423486053943638,
                0.9980079531669616
            ],
            "min": [
                0.00026793399592861533,
                0.001991986995562911
            ],
            "type": "VEC2"
        },
        {
            "name": "Shades_BeltShape#0/indices",
            "bufferView": 4,
            "byteOffset": 0,
            "componentType": 5125,
            "count": 362736,
            "max": [
                344909
            ],
            "min": [
                0
            ],
            "type": "SCALAR"
        },
        {
            "name": "Shades_BeltShape#0/vertices/NORMAL",
            "bufferView": 1,
            "byteOffset": 87072,
            "componentType": 5126,
            "count": 344910,
            "max": [
                1.0,
                1.0,
                1.0
            ],
            "min": [
                -1.0,
                -1.0,
                -1.0
            ],
            "type": "VEC3"
        },
        {
            "name": "Shades_BeltShape#0/vertices/POSITION",
            "bufferView": 1,
            "byteOffset": 4225992,
            "componentType": 5126,
            "count": 344910,
            "max": [
                -119.8838882446289,
                273.8472290039063,
                -264.369873046875
            ],
            "min": [
                -123.45802307128906,
                171.16940307617188,
                -266.1234130859375
            ],
            "type": "VEC3"
        },
        {
            "name": "Shades_BeltShape#0/vertices/TANGENT",
            "bufferView": 2,
            "byteOffset": 58048,
            "componentType": 5126,
            "count": 344910,
            "max": [
                1.0,
                1.0,
                0.7131307721138,
                1.0
            ],
            "min": [
                -0.9222621321678162,
                -1.0,
                -0.7131307721138,
                1.0
            ],
            "type": "VEC4"
        },
        {
            "name": "Shades_BeltShape#0/vertices/TEXCOORD_0",
            "bufferView": 3,
            "byteOffset": 29024,
            "componentType": 5126,
            "count": 344910,
            "max": [
                0.9943103790283204,
                0.9980079531669616
            ],
            "min": [
                0.0019846518989652397,
                0.0019919280894100668
            ],
            "type": "VEC2"
        },
        {
            "name": "Shades1Shape#0/indices",
            "bufferView": 0,
            "byteOffset": 7488,
            "componentType": 5123,
            "count": 36,
            "max": [
                23
            ],
            "min": [
                0
            ],
            "type": "SCALAR"
        },
        {
            "name": "Shades1Shape#0/vertices/NORMAL",
            "bufferView": 1,
            "byteOffset": 8364912,
            "componentType": 5126,
            "count": 24,
            "max": [
                1.0,
                1.0,
                1.0
            ],
            "min": [
                -1.0,
                -1.0,
                -1.0
            ],
            "type": "VEC3"
        },
        {
            "name": "Shades1Shape#0/vertices/POSITION",
            "bufferView": 1,
            "byteOffset": 8365200,
            "componentType": 5126,
            "count": 24,
            "max": [
                -123.70901489257813,
                272.9089660644531,
                116.07085418701172
            ],
            "min": [
                -124.8742904663086,
                197.9197540283203,
                -263.1963195800781
            ],
            "type": "VEC3"
        },
        {
            "name": "Shades1Shape#0/vertices/TANGENT",
            "bufferView": 2,
            "byteOffset": 5576608,
            "componentType": 5126,
            "count": 24,
            "max": [
                1.0,
                1.0,
                0.8714544177055359,
                1.0
            ],
            "min": [
                -0.000046818000555504116,
                0.0,
                -0.9643941521644592,
                1.0
            ],
            "type": "VEC4"
        },
        {
            "name": "Shades1Shape#0/vertices/TEXCOORD_0",
            "bufferView": 3,
            "byteOffset": 2788304,
            "componentType": 5126,
            "count": 24,
            "max": [
                0.4372698664665222,
                0.9980079531669616
            ],
            "min": [
                0.0008727940148673952,
                0.001992047065868974
            ],
            "type": "VEC2"
        }
    ],
    "bufferViews": [
        {
            "name": "Shades/data/indices-2",
            "buffer": 0,
            "byteOffset": 18181920,
            "byteLength": 7560,
            "target": 34963
        },
        {
            "name": "Shades/data/vertices-12",
            "buffer": 0,
            "byteOffset": 5576992,
            "byteLength": 8365488,
            "byteStride": 12,
            "target": 34962
        },
        {
            "name": "Shades/data/vertices-16",
            "buffer": 0,
            "byteOffset": 0,
            "byteLength": 5576992,
            "byteStride": 16,
            "target": 34962
        },
        {
            "name": "Shades/data/vertices-8",
            "buffer": 0,
            "byteOffset": 13942480,
            "byteLength": 2788496,
            "byteStride": 8,
            "target": 34962
        },
        {
            "name": "Shades/data/indices-4",
            "buffer": 0,
            "byteOffset": 16730976,
            "byteLength": 1450944,
            "target": 34963
        }
    ],
    "buffers": [
        {
            "name": "Shades/data",
            "byteLength": 18189480,
            "uri": "Shades0.bin"
        }
    ]
}
