{
    "asset": {
        "copyright": "(C)2024 osain",
        "generator": "maya2glTF main fbbc95e5dc4d",
        "version": "2.0"
    },
    "scenes": [
        {
            "nodes": [
                2,
                0
            ]
        }
    ],
    "scene": 0,
    "nodes": [
        {
            "name": "Shelving_2",
            "children": [
                1
            ],
            "translation": [
                94.56461334228516,
                60.07487869262695,
                -308.71282958984377
            ]
        },
        {
            "name": "Shelving_2:PIV",
            "mesh": 0,
            "translation": [
                -94.56461334228516,
                -60.07487869262695,
                308.71282958984377
            ]
        },
        {
            "name": "Shelving_1",
            "children": [
                3
            ],
            "translation": [
                74.54586029052735,
                180.7459716796875,
                -320.0055236816406
            ]
        },
        {
            "name": "Shelving_1:PIV",
            "mesh": 1,
            "translation": [
                -74.54586029052735,
                -180.7459716796875,
                320.0055236816406
            ]
        }
    ],
    "meshes": [
        {
            "name": "Shelving_2Shape",
            "extras": {
                "targetNames": []
            },
            "primitives": [
                {
                    "attributes": {
                        "NORMAL": 1,
                        "POSITION": 2,
                        "TANGENT": 3,
                        "TEXCOORD_0": 4
                    },
                    "indices": 0,
                    "mode": 4,
                    "material": 0
                }
            ]
        },
        {
            "name": "Shelving_1Shape",
            "extras": {
                "targetNames": []
            },
            "primitives": [
                {
                    "attributes": {
                        "NORMAL": 6,
                        "POSITION": 7,
                        "TANGENT": 8,
                        "TEXCOORD_0": 9,
                        "TEXCOORD_1": 10
                    },
                    "indices": 5,
                    "mode": 4,
                    "material": 0
                },
                {
                    "attributes": {
                        "NORMAL": 12,
                        "POSITION": 13,
                        "TANGENT": 14,
                        "TEXCOORD_1": 15
                    },
                    "indices": 11,
                    "mode": 4,
                    "material": 0
                }
            ]
        }
    ],
    "materials": [
        {
            "name": "lambert1",
            "pbrMetallicRoughness": {
                "baseColorFactor": [
                    0.4000000059604645,
                    0.4000000059604645,
                    0.4000000059604645,
                    1.0
                ],
                "metallicFactor": 0.0,
                "roughnessFactor": 1.0
            }
        }
    ],
    "accessors": [
        {
            "name": "Shelving_2Shape#0/indices",
            "bufferView": 0,
            "byteOffset": 0,
            "componentType": 5123,
            "count": 36,
            "max": [
                23
            ],
            "min": [
                0
            ],
            "type": "SCALAR"
        },
        {
            "name": "Shelving_2Shape#0/vertices/NORMAL",
            "bufferView": 1,
            "byteOffset": 0,
            "componentType": 5126,
            "count": 24,
            "max": [
                1.0,
                1.0,
                1.0
            ],
            "min": [
                -1.0,
                -1.0,
                -1.0
            ],
            "type": "VEC3"
        },
        {
            "name": "Shelving_2Shape#0/vertices/POSITION",
            "bufferView": 1,
            "byteOffset": 288,
            "componentType": 5126,
            "count": 24,
            "max": [
                269.5646057128906,
                67.07488250732422,
                -283.71282958984377
            ],
            "min": [
                -80.43538665771485,
                60.07487869262695,
                -333.71282958984377
            ],
            "type": "VEC3"
        },
        {
            "name": "Shelving_2Shape#0/vertices/TANGENT",
            "bufferView": 2,
            "byteOffset": 0,
            "componentType": 5126,
            "count": 24,
            "max": [
                0.0,
                1.0,
                1.0,
                1.0
            ],
            "min": [
                0.0,
                -1.0,
                -1.0,
                1.0
            ],
            "type": "VEC4"
        },
        {
            "name": "Shelving_2Shape#0/vertices/TEXCOORD_0",
            "bufferView": 3,
            "byteOffset": 0,
            "componentType": 5126,
            "count": 24,
            "max": [
                0.4015010297298432,
                0.9980079531669616
            ],
            "min": [
                0.0008013990009203553,
                0.001991986995562911
            ],
            "type": "VEC2"
        },
        {
            "name": "Shelving_1Shape#0/indices",
            "bufferView": 0,
            "byteOffset": 72,
            "componentType": 5123,
            "count": 762,
            "max": [
                507
            ],
            "min": [
                0
            ],
            "type": "SCALAR"
        },
        {
            "name": "Shelving_1Shape#0/vertices/NORMAL",
            "bufferView": 1,
            "byteOffset": 576,
            "componentType": 5126,
            "count": 508,
            "max": [
                1.0,
                1.0,
                1.0
            ],
            "min": [
                -1.0,
                -1.0,
                -1.0
            ],
            "type": "VEC3"
        },
        {
            "name": "Shelving_1Shape#0/vertices/POSITION",
            "bufferView": 1,
            "byteOffset": 6672,
            "componentType": 5126,
            "count": 508,
            "max": [
                216.73599243164066,
                253.1977691650391,
                -308.39697265625
            ],
            "min": [
                -67.65620422363281,
                135.63040161132813,
                -333.4903869628906
            ],
            "type": "VEC3"
        },
        {
            "name": "Shelving_1Shape#0/vertices/TANGENT",
            "bufferView": 2,
            "byteOffset": 384,
            "componentType": 5126,
            "count": 508,
            "max": [
                1.0,
                1.0,
                1.0,
                1.0
            ],
            "min": [
                -1.0,
                -1.0,
                -1.0,
                1.0
            ],
            "type": "VEC4"
        },
        {
            "name": "Shelving_1Shape#0/vertices/TEXCOORD_0",
            "bufferView": 3,
            "byteOffset": 192,
            "componentType": 5126,
            "count": 508,
            "max": [
                118.32473754882813,
                1.039370059967041
            ],
            "min": [
                -119.29133605957033,
                -59.23622131347656
            ],
            "type": "VEC2"
        },
        {
            "name": "Shelving_1Shape#0/vertices/TEXCOORD_1",
            "bufferView": 3,
            "byteOffset": 4256,
            "componentType": 5126,
            "count": 508,
            "max": [
                0.9536245465278626,
                0.7511171102523804
            ],
            "min": [
                0.001903460011817515,
                0.01143723726272583
            ],
            "type": "VEC2"
        },
        {
            "name": "Shelving_1Shape#1/indices",
            "bufferView": 0,
            "byteOffset": 1596,
            "componentType": 5123,
            "count": 2280,
            "max": [
                1480
            ],
            "min": [
                0
            ],
            "type": "SCALAR"
        },
        {
            "name": "Shelving_1Shape#1/vertices/NORMAL",
            "bufferView": 1,
            "byteOffset": 12768,
            "componentType": 5126,
            "count": 1481,
            "max": [
                1.0,
                1.0,
                1.0
            ],
            "min": [
                -1.0,
                -1.0,
                -1.0
            ],
            "type": "VEC3"
        },
        {
            "name": "Shelving_1Shape#1/vertices/POSITION",
            "bufferView": 1,
            "byteOffset": 30540,
            "componentType": 5126,
            "count": 1481,
            "max": [
                216.8089141845703,
                253.2784423828125,
                -305.58245849609377
            ],
            "min": [
                -67.71719360351563,
                108.21350860595705,
                -334.4285888671875
            ],
            "type": "VEC3"
        },
        {
            "name": "Shelving_1Shape#1/vertices/TANGENT",
            "bufferView": 2,
            "byteOffset": 8512,
            "componentType": 5126,
            "count": 1481,
            "max": [
                1.0,
                1.0,
                1.0,
                1.0
            ],
            "min": [
                -0.0027582449838519098,
                -1.0,
                -1.0,
                1.0
            ],
            "type": "VEC4"
        },
        {
            "name": "Shelving_1Shape#1/vertices/TEXCOORD_1",
            "bufferView": 3,
            "byteOffset": 8320,
            "componentType": 5126,
            "count": 1481,
            "max": [
                0.9536245465278626,
                0.9980079531669616
            ],
            "min": [
                0.001903441967442632,
                0.001992047065868974
            ],
            "type": "VEC2"
        }
    ],
    "bufferViews": [
        {
            "name": "Shelving/data/indices-2",
            "buffer": 0,
            "byteOffset": 100688,
            "byteLength": 6156,
            "target": 34963
        },
        {
            "name": "Shelving/data/vertices-12",
            "buffer": 0,
            "byteOffset": 32208,
            "byteLength": 48312,
            "byteStride": 12,
            "target": 34962
        },
        {
            "name": "Shelving/data/vertices-16",
            "buffer": 0,
            "byteOffset": 0,
            "byteLength": 32208,
            "byteStride": 16,
            "target": 34962
        },
        {
            "name": "Shelving/data/vertices-8",
            "buffer": 0,
            "byteOffset": 80520,
            "byteLength": 20168,
            "byteStride": 8,
            "target": 34962
        }
    ],
    "buffers": [
        {
            "name": "Shelving/data",
            "byteLength": 106844,
            "uri": "Shelving0.bin"
        }
    ]
}
