{
    "asset": {
        "copyright": "(C)2024 osain",
        "generator": "maya2glTF main fbbc95e5dc4d",
        "version": "2.0"
    },
    "scenes": [
        {
            "nodes": [
                6,
                4,
                2,
                0
            ]
        }
    ],
    "scene": 0,
    "nodes": [
        {
            "name": "Sofa_buttons",
            "children": [
                1
            ],
            "translation": [
                73.5639877319336,
                43.00319290161133,
                -115.06578063964844
            ]
        },
        {
            "name": "Sofa_buttons:PIV",
            "mesh": 0,
            "translation": [
                -73.5639877319336,
                -43.00319290161133,
                115.06578063964844
            ]
        },
        {
            "name": "Sofa_Legs",
            "children": [
                3
            ],
            "translation": [
                73.74881744384766,
                19.152387619018556,
                -105.27246856689452
            ]
        },
        {
            "name": "Sofa_Legs:PIV",
            "mesh": 1,
            "translation": [
                -73.74881744384766,
                -19.152387619018556,
                105.27246856689452
            ]
        },
        {
            "name": "Sofa1",
            "children": [
                5
            ],
            "translation": [
                73.3808364868164,
                48.74074172973633,
                -103.94886779785156
            ]
        },
        {
            "name": "Sofa1:PIV",
            "mesh": 2,
            "translation": [
                -73.3808364868164,
                -48.74074172973633,
                103.94886779785156
            ]
        },
        {
            "name": "Light_Beam",
            "children": [
                7
            ],
            "translation": [
                75.59501647949219,
                272.7783813476563,
                -264.36376953125
            ]
        },
        {
            "name": "Light_Beam:PIV",
            "mesh": 3,
            "translation": [
                -75.59501647949219,
                -272.7783813476563,
                264.36376953125
            ]
        }
    ],
    "meshes": [
        {
            "name": "Sofa_buttonsShape",
            "extras": {
                "targetNames": []
            },
            "primitives": [
                {
                    "attributes": {
                        "COLOR_0": 1,
                        "NORMAL": 2,
                        "POSITION": 3,
                        "TANGENT": 4,
                        "TEXCOORD_0": 5
                    },
                    "indices": 0,
                    "mode": 4,
                    "material": 0
                }
            ]
        },
        {
            "name": "Sofa_LegsShape",
            "extras": {
                "targetNames": []
            },
            "primitives": [
                {
                    "attributes": {
                        "COLOR_0": 7,
                        "NORMAL": 8,
                        "POSITION": 9,
                        "TANGENT": 10,
                        "TEXCOORD_0": 11,
                        "TEXCOORD_1": 12
                    },
                    "indices": 6,
                    "mode": 4,
                    "material": 0
                }
            ]
        },
        {
            "name": "Sofa1Shape",
            "extras": {
                "targetNames": []
            },
            "primitives": [
                {
                    "attributes": {
                        "COLOR_0": 14,
                        "NORMAL": 15,
                        "POSITION": 16,
                        "TANGENT": 17,
                        "TEXCOORD_0": 18
                    },
                    "indices": 13,
                    "mode": 4,
                    "material": 0
                }
            ]
        },
        {
            "name": "Light_BeamShape",
            "extras": {
                "targetNames": []
            },
            "primitives": [
                {
                    "attributes": {
                        "NORMAL": 20,
                        "POSITION": 21,
                        "TANGENT": 22,
                        "TEXCOORD_0": 23
                    },
                    "indices": 19,
                    "mode": 4,
                    "material": 0
                }
            ]
        }
    ],
    "materials": [
        {
            "name": "lambert1",
            "pbrMetallicRoughness": {
                "baseColorFactor": [
                    0.4000000059604645,
                    0.4000000059604645,
                    0.4000000059604645,
                    1.0
                ],
                "metallicFactor": 0.0,
                "roughnessFactor": 1.0
            }
        }
    ],
    "accessors": [
        {
            "name": "Sofa_buttonsShape#0/indices",
            "bufferView": 0,
            "byteOffset": 0,
            "componentType": 5123,
            "count": 19008,
            "max": [
                19006
            ],
            "min": [
                0
            ],
            "type": "SCALAR"
        },
        {
            "name": "Sofa_buttonsShape#0/vertices/COLOR_0",
            "bufferView": 1,
            "byteOffset": 0,
            "componentType": 5126,
            "count": 19007,
            "max": [
                1.0,
                1.0,
                1.0,
                1.0
            ],
            "min": [
                1.0,
                1.0,
                1.0,
                1.0
            ],
            "type": "VEC4"
        },
        {
            "name": "Sofa_buttonsShape#0/vertices/NORMAL",
            "bufferView": 2,
            "byteOffset": 0,
            "componentType": 5126,
            "count": 19007,
            "max": [
                1.0,
                1.0,
                1.0
            ],
            "min": [
                -1.0,
                -1.0,
                -1.0
            ],
            "type": "VEC3"
        },
        {
            "name": "Sofa_buttonsShape#0/vertices/POSITION",
            "bufferView": 2,
            "byteOffset": 228084,
            "componentType": 5126,
            "count": 19007,
            "max": [
                149.72024536132813,
                43.663421630859378,
                -97.6107177734375
            ],
            "min": [
                -2.5922622680664064,
                42.34296798706055,
                -132.52084350585938
            ],
            "type": "VEC3"
        },
        {
            "name": "Sofa_buttonsShape#0/vertices/TANGENT",
            "bufferView": 1,
            "byteOffset": 304112,
            "componentType": 5126,
            "count": 19007,
            "max": [
                0.8711733818054199,
                0.9976487159729004,
                1.0,
                1.0
            ],
            "min": [
                -0.870922863483429,
                -0.9976415038108826,
                -1.0,
                1.0
            ],
            "type": "VEC4"
        },
        {
            "name": "Sofa_buttonsShape#0/vertices/TEXCOORD_0",
            "bufferView": 3,
            "byteOffset": 0,
            "componentType": 5126,
            "count": 19007,
            "max": [
                0.9917221665382384,
                1.0
            ],
            "min": [
                0.0,
                0.0
            ],
            "type": "VEC2"
        },
        {
            "name": "Sofa_LegsShape#0/indices",
            "bufferView": 0,
            "byteOffset": 38016,
            "componentType": 5123,
            "count": 4872,
            "max": [
                4871
            ],
            "min": [
                0
            ],
            "type": "SCALAR"
        },
        {
            "name": "Sofa_LegsShape#0/vertices/COLOR_0",
            "bufferView": 1,
            "byteOffset": 608224,
            "componentType": 5126,
            "count": 4872,
            "max": [
                1.0,
                1.0,
                1.0,
                1.0
            ],
            "min": [
                1.0,
                1.0,
                1.0,
                1.0
            ],
            "type": "VEC4"
        },
        {
            "name": "Sofa_LegsShape#0/vertices/NORMAL",
            "bufferView": 2,
            "byteOffset": 456168,
            "componentType": 5126,
            "count": 4872,
            "max": [
                1.0,
                1.0,
                1.0
            ],
            "min": [
                -1.0,
                -0.9992294311523438,
                -0.9992300271987916
            ],
            "type": "VEC3"
        },
        {
            "name": "Sofa_LegsShape#0/vertices/POSITION",
            "bufferView": 2,
            "byteOffset": 514632,
            "componentType": 5126,
            "count": 4872,
            "max": [
                159.67807006835938,
                25.93269729614258,
                -68.53197479248047
            ],
            "min": [
                -12.180427551269532,
                12.372076988220217,
                -142.01296997070313
            ],
            "type": "VEC3"
        },
        {
            "name": "Sofa_LegsShape#0/vertices/TANGENT",
            "bufferView": 1,
            "byteOffset": 686176,
            "componentType": 5126,
            "count": 4872,
            "max": [
                0.9998613595962524,
                0.9997722506523132,
                0.9999606013298036,
                1.0
            ],
            "min": [
                -0.97751122713089,
                -0.9999755024909972,
                -0.9999229907989502,
                1.0
            ],
            "type": "VEC4"
        },
        {
            "name": "Sofa_LegsShape#0/vertices/TEXCOORD_0",
            "bufferView": 3,
            "byteOffset": 152056,
            "componentType": 5126,
            "count": 4872,
            "max": [
                0.9319740533828737,
                0.9873480200767516
            ],
            "min": [
                0.018536273390054704,
                0.004740654956549406
            ],
            "type": "VEC2"
        },
        {
            "name": "Sofa_LegsShape#0/vertices/TEXCOORD_1",
            "bufferView": 3,
            "byteOffset": 191032,
            "componentType": 5126,
            "count": 4872,
            "max": [
                0.6350956559181213,
                0.4654576778411865
            ],
            "min": [
                0.0,
                0.23104900121688844
            ],
            "type": "VEC2"
        },
        {
            "name": "Sofa1Shape#0/indices",
            "bufferView": 4,
            "byteOffset": 0,
            "componentType": 5125,
            "count": 340200,
            "max": [
                319377
            ],
            "min": [
                0
            ],
            "type": "SCALAR"
        },
        {
            "name": "Sofa1Shape#0/vertices/COLOR_0",
            "bufferView": 1,
            "byteOffset": 764128,
            "componentType": 5126,
            "count": 319378,
            "max": [
                1.0,
                1.0,
                1.0,
                1.0
            ],
            "min": [
                1.0,
                1.0,
                1.0,
                1.0
            ],
            "type": "VEC4"
        },
        {
            "name": "Sofa1Shape#0/vertices/NORMAL",
            "bufferView": 2,
            "byteOffset": 573096,
            "componentType": 5126,
            "count": 319378,
            "max": [
                1.0,
                1.0,
                0.9999974966049194
            ],
            "min": [
                -1.0,
                -1.0,
                -1.0
            ],
            "type": "VEC3"
        },
        {
            "name": "Sofa1Shape#0/vertices/POSITION",
            "bufferView": 2,
            "byteOffset": 4405632,
            "componentType": 5126,
            "count": 319378,
            "max": [
                183.25942993164066,
                74.29632568359375,
                -59.99232482910156
            ],
            "min": [
                -36.49775695800781,
                23.18515396118164,
                -147.90541076660157
            ],
            "type": "VEC3"
        },
        {
            "name": "Sofa1Shape#0/vertices/TANGENT",
            "bufferView": 1,
            "byteOffset": 5874176,
            "componentType": 5126,
            "count": 319378,
            "max": [
                0.963836908340454,
                1.0,
                1.0,
                1.0
            ],
            "min": [
                -0.9648894667625428,
                -1.0,
                -1.0,
                -1.0
            ],
            "type": "VEC4"
        },
        {
            "name": "Sofa1Shape#0/vertices/TEXCOORD_0",
            "bufferView": 3,
            "byteOffset": 230008,
            "componentType": 5126,
            "count": 319378,
            "max": [
                0.9971805214881896,
                1.0
            ],
            "min": [
                0.0,
                0.0
            ],
            "type": "VEC2"
        },
        {
            "name": "Light_BeamShape#0/indices",
            "bufferView": 0,
            "byteOffset": 47760,
            "componentType": 5123,
            "count": 7932,
            "max": [
                6570
            ],
            "min": [
                0
            ],
            "type": "SCALAR"
        },
        {
            "name": "Light_BeamShape#0/vertices/NORMAL",
            "bufferView": 2,
            "byteOffset": 8238168,
            "componentType": 5126,
            "count": 6571,
            "max": [
                1.0,
                1.0,
                1.0
            ],
            "min": [
                -1.0,
                -1.0,
                -1.0
            ],
            "type": "VEC3"
        },
        {
            "name": "Light_BeamShape#0/vertices/POSITION",
            "bufferView": 2,
            "byteOffset": 8317020,
            "componentType": 5126,
            "count": 6571,
            "max": [
                218.94210815429688,
                274.4051513671875,
                -262.6070861816406
            ],
            "min": [
                -67.7520751953125,
                271.151611328125,
                -266.1204833984375
            ],
            "type": "VEC3"
        },
        {
            "name": "Light_BeamShape#0/vertices/TANGENT",
            "bufferView": 1,
            "byteOffset": 10984224,
            "componentType": 5126,
            "count": 6571,
            "max": [
                1.0,
                1.0,
                1.0,
                1.0
            ],
            "min": [
                -1.0,
                -1.0,
                -1.0,
                -1.0
            ],
            "type": "VEC4"
        },
        {
            "name": "Light_BeamShape#0/vertices/TEXCOORD_0",
            "bufferView": 3,
            "byteOffset": 2785032,
            "componentType": 5126,
            "count": 6571,
            "max": [
                0.8929799199104309,
                0.9980079531669616
            ],
            "min": [
                0.0017823949456214905,
                0.0019919280894100668
            ],
            "type": "VEC2"
        }
    ],
    "bufferViews": [
        {
            "name": "Sofa/data/indices-2",
            "buffer": 0,
            "byteOffset": 23683632,
            "byteLength": 63624,
            "target": 34963
        },
        {
            "name": "Sofa/data/vertices-16",
            "buffer": 0,
            "byteOffset": 0,
            "byteLength": 11089360,
            "byteStride": 16,
            "target": 34962
        },
        {
            "name": "Sofa/data/vertices-12",
            "buffer": 0,
            "byteOffset": 11089360,
            "byteLength": 8395872,
            "byteStride": 12,
            "target": 34962
        },
        {
            "name": "Sofa/data/vertices-8",
            "buffer": 0,
            "byteOffset": 19485232,
            "byteLength": 2837600,
            "byteStride": 8,
            "target": 34962
        },
        {
            "name": "Sofa/data/indices-4",
            "buffer": 0,
            "byteOffset": 22322832,
            "byteLength": 1360800,
            "target": 34963
        }
    ],
    "buffers": [
        {
            "name": "Sofa/data",
            "byteLength": 23747256,
            "uri": "Sofa0.bin"
        }
    ]
}
