{
    "asset": {
        "copyright": "(C)2024 osain",
        "generator": "maya2glTF main fbbc95e5dc4d",
        "version": "2.0"
    },
    "scenes": [
        {
            "nodes": [
                4,
                2,
                0
            ]
        }
    ],
    "scene": 0,
    "nodes": [
        {
            "name": "Spotlight_Wire",
            "children": [
                1
            ],
            "translation": [
                261.9591979980469,
                231.51602172851566,
                -137.09593200683598
            ]
        },
        {
            "name": "Spotlight_Wire:PIV",
            "mesh": 0,
            "translation": [
                -261.9591979980469,
                -231.51602172851566,
                137.09593200683598
            ]
        },
        {
            "name": "Spotlight_Main",
            "children": [
                3
            ],
            "translation": [
                260.1453552246094,
                228.08226013183598,
                -136.29629516601566
            ]
        },
        {
            "name": "Spotlight_Main:PIV",
            "mesh": 1,
            "translation": [
                -260.1453552246094,
                -228.08226013183598,
                136.29629516601566
            ]
        },
        {
            "name": "Spotlight_Bolts",
            "children": [
                5
            ],
            "translation": [
                260.4503479003906,
                234.63385009765626,
                -136.26123046875
            ]
        },
        {
            "name": "Spotlight_Bolts:PIV",
            "mesh": 2,
            "translation": [
                -260.4503479003906,
                -234.63385009765626,
                136.26123046875
            ]
        }
    ],
    "meshes": [
        {
            "name": "Spotlight_WireShape",
            "extras": {
                "targetNames": []
            },
            "primitives": [
                {
                    "attributes": {
                        "NORMAL": 1,
                        "POSITION": 2,
                        "TANGENT": 3,
                        "TEXCOORD_0": 4
                    },
                    "indices": 0,
                    "mode": 4,
                    "material": 0
                }
            ]
        },
        {
            "name": "Spotlight_MainShape",
            "extras": {
                "targetNames": []
            },
            "primitives": [
                {
                    "attributes": {
                        "NORMAL": 6,
                        "POSITION": 7,
                        "TANGENT": 8,
                        "TEXCOORD_0": 9
                    },
                    "indices": 5,
                    "mode": 4,
                    "material": 0
                }
            ]
        },
        {
            "name": "Spotlight_BoltsShape",
            "extras": {
                "targetNames": []
            },
            "primitives": [
                {
                    "attributes": {
                        "NORMAL": 11,
                        "POSITION": 12,
                        "TANGENT": 13,
                        "TEXCOORD_0": 14
                    },
                    "indices": 10,
                    "mode": 4,
                    "material": 0
                }
            ]
        }
    ],
    "materials": [
        {
            "name": "lambert1",
            "pbrMetallicRoughness": {
                "baseColorFactor": [
                    0.4000000059604645,
                    0.4000000059604645,
                    0.4000000059604645,
                    1.0
                ],
                "metallicFactor": 0.0,
                "roughnessFactor": 1.0
            }
        }
    ],
    "accessors": [
        {
            "name": "Spotlight_WireShape#0/indices",
            "bufferView": 0,
            "byteOffset": 0,
            "componentType": 5125,
            "count": 66204,
            "max": [
                66163
            ],
            "min": [
                0
            ],
            "type": "SCALAR"
        },
        {
            "name": "Spotlight_WireShape#0/vertices/NORMAL",
            "bufferView": 1,
            "byteOffset": 0,
            "componentType": 5126,
            "count": 66164,
            "max": [
                0.9795891046524048,
                0.9997064471244812,
                0.9997386932373048
            ],
            "min": [
                -0.9795859456062316,
                -0.9996810555458068,
                -0.9996429681777954
            ],
            "type": "VEC3"
        },
        {
            "name": "Spotlight_WireShape#0/vertices/POSITION",
            "bufferView": 1,
            "byteOffset": 793968,
            "componentType": 5126,
            "count": 66164,
            "max": [
                266.0896911621094,
                235.6366729736328,
                -38.95819854736328
            ],
            "min": [
                257.3342895507813,
                230.16229248046876,
                -235.2336578369141
            ],
            "type": "VEC3"
        },
        {
            "name": "Spotlight_WireShape#0/vertices/TANGENT",
            "bufferView": 2,
            "byteOffset": 0,
            "componentType": 5126,
            "count": 66164,
            "max": [
                0.9052908420562744,
                0.9999988079071044,
                0.9999954104423524,
                1.0
            ],
            "min": [
                -0.9077627062797546,
                -0.9999994039535524,
                -0.9999958872795104,
                1.0
            ],
            "type": "VEC4"
        },
        {
            "name": "Spotlight_WireShape#0/vertices/TEXCOORD_0",
            "bufferView": 3,
            "byteOffset": 0,
            "componentType": 5126,
            "count": 66164,
            "max": [
                0.9980079531669616,
                0.9981173872947692
            ],
            "min": [
                0.0019920319318771364,
                0.05681198835372925
            ],
            "type": "VEC2"
        },
        {
            "name": "Spotlight_MainShape#0/indices",
            "bufferView": 0,
            "byteOffset": 264816,
            "componentType": 5125,
            "count": 81036,
            "max": [
                74069
            ],
            "min": [
                0
            ],
            "type": "SCALAR"
        },
        {
            "name": "Spotlight_MainShape#0/vertices/NORMAL",
            "bufferView": 1,
            "byteOffset": 1587936,
            "componentType": 5126,
            "count": 74070,
            "max": [
                1.0,
                1.0,
                1.0
            ],
            "min": [
                -1.0,
                -1.0,
                -1.0
            ],
            "type": "VEC3"
        },
        {
            "name": "Spotlight_MainShape#0/vertices/POSITION",
            "bufferView": 1,
            "byteOffset": 2476776,
            "componentType": 5126,
            "count": 74070,
            "max": [
                274.8319091796875,
                243.57379150390626,
                -32.82069396972656
            ],
            "min": [
                241.52517700195313,
                221.66131591796876,
                -239.7718963623047
            ],
            "type": "VEC3"
        },
        {
            "name": "Spotlight_MainShape#0/vertices/TANGENT",
            "bufferView": 2,
            "byteOffset": 1058624,
            "componentType": 5126,
            "count": 74070,
            "max": [
                1.0,
                1.0,
                1.0,
                1.0
            ],
            "min": [
                -0.9819047451019288,
                -1.0,
                -1.0,
                -1.0
            ],
            "type": "VEC4"
        },
        {
            "name": "Spotlight_MainShape#0/vertices/TEXCOORD_0",
            "bufferView": 3,
            "byteOffset": 529312,
            "componentType": 5126,
            "count": 74070,
            "max": [
                0.9980080127716065,
                0.9980353713035584
            ],
            "min": [
                0.0019920319318771364,
                0.015733420848846437
            ],
            "type": "VEC2"
        },
        {
            "name": "Spotlight_BoltsShape#0/indices",
            "bufferView": 4,
            "byteOffset": 0,
            "componentType": 5123,
            "count": 22752,
            "max": [
                19561
            ],
            "min": [
                0
            ],
            "type": "SCALAR"
        },
        {
            "name": "Spotlight_BoltsShape#0/vertices/NORMAL",
            "bufferView": 1,
            "byteOffset": 3365616,
            "componentType": 5126,
            "count": 19562,
            "max": [
                1.0,
                1.0,
                1.0
            ],
            "min": [
                -1.0,
                -1.0,
                -1.0
            ],
            "type": "VEC3"
        },
        {
            "name": "Spotlight_BoltsShape#0/vertices/POSITION",
            "bufferView": 1,
            "byteOffset": 3600360,
            "componentType": 5126,
            "count": 19562,
            "max": [
                261.55047607421877,
                239.22427368164066,
                -37.69455337524414
            ],
            "min": [
                259.2017822265625,
                230.17288208007813,
                -234.82791137695313
            ],
            "type": "VEC3"
        },
        {
            "name": "Spotlight_BoltsShape#0/vertices/TANGENT",
            "bufferView": 2,
            "byteOffset": 2243744,
            "componentType": 5126,
            "count": 19562,
            "max": [
                1.0,
                1.0,
                1.0,
                1.0
            ],
            "min": [
                -0.9728206396102904,
                -1.0,
                -1.0,
                -1.0
            ],
            "type": "VEC4"
        },
        {
            "name": "Spotlight_BoltsShape#0/vertices/TEXCOORD_0",
            "bufferView": 3,
            "byteOffset": 1121872,
            "componentType": 5126,
            "count": 19562,
            "max": [
                0.990881323814392,
                0.9980079531669616
            ],
            "min": [
                0.0019778069108724596,
                0.0019919280894100668
            ],
            "type": "VEC2"
        }
    ],
    "bufferViews": [
        {
            "name": "SpotlightWall/data/indices-4",
            "buffer": 0,
            "byteOffset": 7670208,
            "byteLength": 588960,
            "target": 34963
        },
        {
            "name": "SpotlightWall/data/vertices-12",
            "buffer": 0,
            "byteOffset": 2556736,
            "byteLength": 3835104,
            "byteStride": 12,
            "target": 34962
        },
        {
            "name": "SpotlightWall/data/vertices-16",
            "buffer": 0,
            "byteOffset": 0,
            "byteLength": 2556736,
            "byteStride": 16,
            "target": 34962
        },
        {
            "name": "SpotlightWall/data/vertices-8",
            "buffer": 0,
            "byteOffset": 6391840,
            "byteLength": 1278368,
            "byteStride": 8,
            "target": 34962
        },
        {
            "name": "SpotlightWall/data/indices-2",
            "buffer": 0,
            "byteOffset": 8259168,
            "byteLength": 45504,
            "target": 34963
        }
    ],
    "buffers": [
        {
            "name": "SpotlightWall/data",
            "byteLength": 8304672,
            "uri": "SpotlightWall0.bin"
        }
    ]
}
