{
    "asset": {
        "copyright": "(C)2024 osain",
        "generator": "maya2glTF main fbbc95e5dc4d",
        "version": "2.0"
    },
    "scenes": [
        {
            "nodes": [
                2,
                0
            ]
        }
    ],
    "scene": 0,
    "nodes": [
        {
            "name": "Table_Surface",
            "children": [
                1
            ],
            "translation": [
                74.42620086669922,
                10.296889305114746,
                -43.99352264404297
            ]
        },
        {
            "name": "Table_Surface:PIV",
            "mesh": 0,
            "translation": [
                -74.42620086669922,
                -10.296889305114746,
                43.99352264404297
            ]
        },
        {
            "name": "Table_Legs",
            "children": [
                3
            ],
            "translation": [
                74.4260482788086,
                31.745624542236329,
                -43.99351501464844
            ]
        },
        {
            "name": "Table_Legs:PIV",
            "mesh": 1,
            "translation": [
                -74.4260482788086,
                -31.745624542236329,
                43.99351501464844
            ]
        }
    ],
    "meshes": [
        {
            "name": "Table_SurfaceShape",
            "extras": {
                "targetNames": []
            },
            "primitives": [
                {
                    "attributes": {
                        "NORMAL": 1,
                        "POSITION": 2,
                        "TANGENT": 3,
                        "TEXCOORD_0": 4,
                        "TEXCOORD_1": 5
                    },
                    "indices": 0,
                    "mode": 4,
                    "material": 0
                }
            ]
        },
        {
            "name": "Table_LegsShape",
            "extras": {
                "targetNames": []
            },
            "primitives": [
                {
                    "attributes": {
                        "NORMAL": 7,
                        "POSITION": 8,
                        "TANGENT": 9,
                        "TEXCOORD_0": 10
                    },
                    "indices": 6,
                    "mode": 4,
                    "material": 0
                }
            ]
        }
    ],
    "materials": [
        {
            "name": "lambert1",
            "pbrMetallicRoughness": {
                "baseColorFactor": [
                    0.4000000059604645,
                    0.4000000059604645,
                    0.4000000059604645,
                    1.0
                ],
                "metallicFactor": 0.0,
                "roughnessFactor": 1.0
            }
        }
    ],
    "accessors": [
        {
            "name": "Table_SurfaceShape#0/indices",
            "bufferView": 0,
            "byteOffset": 0,
            "componentType": 5123,
            "count": 84,
            "max": [
                83
            ],
            "min": [
                0
            ],
            "type": "SCALAR"
        },
        {
            "name": "Table_SurfaceShape#0/vertices/NORMAL",
            "bufferView": 1,
            "byteOffset": 0,
            "componentType": 5126,
            "count": 84,
            "max": [
                0.9848083257675172,
                1.0,
                1.0
            ],
            "min": [
                -0.9848079681396484,
                -1.0,
                -1.0
            ],
            "type": "VEC3"
        },
        {
            "name": "Table_SurfaceShape#0/vertices/POSITION",
            "bufferView": 1,
            "byteOffset": 1008,
            "componentType": 5126,
            "count": 84,
            "max": [
                136.40884399414066,
                55.6943359375,
                -26.49351310729981
            ],
            "min": [
                12.443563461303713,
                53.194332122802737,
                -61.493534088134769
            ],
            "type": "VEC3"
        },
        {
            "name": "Table_SurfaceShape#0/vertices/TANGENT",
            "bufferView": 2,
            "byteOffset": 0,
            "componentType": 5126,
            "count": 84,
            "max": [
                0.7660420536994934,
                1.0,
                1.0,
                1.0
            ],
            "min": [
                -0.7660420536994934,
                -1.0,
                -1.0,
                1.0
            ],
            "type": "VEC4"
        },
        {
            "name": "Table_SurfaceShape#0/vertices/TEXCOORD_0",
            "bufferView": 3,
            "byteOffset": 0,
            "componentType": 5126,
            "count": 84,
            "max": [
                0.6763457655906677,
                0.9980079531669616
            ],
            "min": [
                0.0013499920023605228,
                0.0019919280894100668
            ],
            "type": "VEC2"
        },
        {
            "name": "Table_SurfaceShape#0/vertices/TEXCOORD_1",
            "bufferView": 3,
            "byteOffset": 672,
            "componentType": 5126,
            "count": 84,
            "max": [
                0.6763457655906677,
                0.9980079531669616
            ],
            "min": [
                0.0013499920023605228,
                0.0019919280894100668
            ],
            "type": "VEC2"
        },
        {
            "name": "Table_LegsShape#0/indices",
            "bufferView": 0,
            "byteOffset": 168,
            "componentType": 5123,
            "count": 7092,
            "max": [
                6818
            ],
            "min": [
                0
            ],
            "type": "SCALAR"
        },
        {
            "name": "Table_LegsShape#0/vertices/NORMAL",
            "bufferView": 1,
            "byteOffset": 2016,
            "componentType": 5126,
            "count": 6819,
            "max": [
                1.0,
                1.0,
                1.0
            ],
            "min": [
                -1.0,
                -1.0,
                -1.0
            ],
            "type": "VEC3"
        },
        {
            "name": "Table_LegsShape#0/vertices/POSITION",
            "bufferView": 1,
            "byteOffset": 83844,
            "componentType": 5126,
            "count": 6819,
            "max": [
                125.42599487304688,
                53.1943588256836,
                -28.99349594116211
            ],
            "min": [
                23.42611312866211,
                10.296889305114746,
                -58.9935302734375
            ],
            "type": "VEC3"
        },
        {
            "name": "Table_LegsShape#0/vertices/TANGENT",
            "bufferView": 2,
            "byteOffset": 1344,
            "componentType": 5126,
            "count": 6819,
            "max": [
                1.0,
                1.0,
                1.0,
                1.0
            ],
            "min": [
                -0.7191876173019409,
                -1.0,
                -1.0,
                -1.0
            ],
            "type": "VEC4"
        },
        {
            "name": "Table_LegsShape#0/vertices/TEXCOORD_0",
            "bufferView": 3,
            "byteOffset": 1344,
            "componentType": 5126,
            "count": 6819,
            "max": [
                0.9471116662025452,
                0.9980079531669616
            ],
            "min": [
                0.001890443032607436,
                0.0019919280894100668
            ],
            "type": "VEC2"
        }
    ],
    "bufferViews": [
        {
            "name": "Table/data/indices-2",
            "buffer": 0,
            "byteOffset": 332016,
            "byteLength": 14352,
            "target": 34963
        },
        {
            "name": "Table/data/vertices-12",
            "buffer": 0,
            "byteOffset": 110448,
            "byteLength": 165672,
            "byteStride": 12,
            "target": 34962
        },
        {
            "name": "Table/data/vertices-16",
            "buffer": 0,
            "byteOffset": 0,
            "byteLength": 110448,
            "byteStride": 16,
            "target": 34962
        },
        {
            "name": "Table/data/vertices-8",
            "buffer": 0,
            "byteOffset": 276120,
            "byteLength": 55896,
            "byteStride": 8,
            "target": 34962
        }
    ],
    "buffers": [
        {
            "name": "Table/data",
            "byteLength": 346368,
            "uri": "Table0.bin"
        }
    ]
}
