{
    "asset": {
        "copyright": "(C)2024 osain",
        "generator": "maya2glTF main fbbc95e5dc4d",
        "version": "2.0"
    },
    "scenes": [
        {
            "nodes": [
                4,
                2,
                0
            ]
        }
    ],
    "scene": 0,
    "nodes": [
        {
            "name": "Trim2",
            "children": [
                1
            ],
            "translation": [
                74.59857940673828,
                10.27342414855957,
                -333.022705078125
            ]
        },
        {
            "name": "Trim2:PIV",
            "mesh": 0,
            "translation": [
                -74.59857940673828,
                -10.27342414855957,
                333.022705078125
            ]
        },
        {
            "name": "Trim1",
            "children": [
                3
            ],
            "translation": [
                -125.10725402832033,
                10.27342414855957,
                -31.62224578857422
            ]
        },
        {
            "name": "Trim1:PIV",
            "mesh": 1,
            "translation": [
                125.10725402832033,
                -10.27342414855957,
                31.62224578857422
            ]
        },
        {
            "name": "Trim",
            "children": [
                5
            ],
            "translation": [
                274.4002685546875,
                10.27342414855957,
                -31.62224578857422
            ]
        },
        {
            "name": "Trim:PIV",
            "mesh": 2,
            "translation": [
                -274.4002685546875,
                -10.27342414855957,
                31.62224578857422
            ]
        }
    ],
    "meshes": [
        {
            "name": "Trim2Shape",
            "extras": {
                "targetNames": []
            },
            "primitives": [
                {
                    "attributes": {
                        "NORMAL": 1,
                        "POSITION": 2,
                        "TANGENT": 3,
                        "TEXCOORD_0": 4
                    },
                    "indices": 0,
                    "mode": 4,
                    "material": 0
                }
            ]
        },
        {
            "name": "Trim1Shape",
            "extras": {
                "targetNames": []
            },
            "primitives": [
                {
                    "attributes": {
                        "NORMAL": 6,
                        "POSITION": 7,
                        "TANGENT": 8,
                        "TEXCOORD_0": 9
                    },
                    "indices": 5,
                    "mode": 4,
                    "material": 0
                }
            ]
        },
        {
            "name": "TrimShape",
            "extras": {
                "targetNames": []
            },
            "primitives": [
                {
                    "attributes": {
                        "NORMAL": 11,
                        "POSITION": 12,
                        "TANGENT": 13,
                        "TEXCOORD_0": 14
                    },
                    "indices": 10,
                    "mode": 4,
                    "material": 0
                }
            ]
        }
    ],
    "materials": [
        {
            "name": "lambert1",
            "pbrMetallicRoughness": {
                "baseColorFactor": [
                    0.4000000059604645,
                    0.4000000059604645,
                    0.4000000059604645,
                    1.0
                ],
                "metallicFactor": 0.0,
                "roughnessFactor": 1.0
            }
        }
    ],
    "accessors": [
        {
            "name": "Trim2Shape#0/indices",
            "bufferView": 0,
            "byteOffset": 0,
            "componentType": 5123,
            "count": 36,
            "max": [
                23
            ],
            "min": [
                0
            ],
            "type": "SCALAR"
        },
        {
            "name": "Trim2Shape#0/vertices/NORMAL",
            "bufferView": 1,
            "byteOffset": 0,
            "componentType": 5126,
            "count": 24,
            "max": [
                1.0,
                1.0,
                1.0
            ],
            "min": [
                -1.0,
                -1.0,
                -1.0
            ],
            "type": "VEC3"
        },
        {
            "name": "Trim2Shape#0/vertices/POSITION",
            "bufferView": 1,
            "byteOffset": 288,
            "componentType": 5126,
            "count": 24,
            "max": [
                274.59857177734377,
                18.27342414855957,
                -332.522705078125
            ],
            "min": [
                -125.40142059326172,
                10.27342414855957,
                -333.5227355957031
            ],
            "type": "VEC3"
        },
        {
            "name": "Trim2Shape#0/vertices/TANGENT",
            "bufferView": 2,
            "byteOffset": 0,
            "componentType": 5126,
            "count": 24,
            "max": [
                4.400000008786265e-8,
                1.0,
                0.0,
                1.0
            ],
            "min": [
                0.0,
                -1.0,
                -1.0,
                1.0
            ],
            "type": "VEC4"
        },
        {
            "name": "Trim2Shape#0/vertices/TEXCOORD_0",
            "bufferView": 3,
            "byteOffset": 0,
            "componentType": 5126,
            "count": 24,
            "max": [
                0.08265223354101181,
                0.9980079531669616
            ],
            "min": [
                0.00016497500473633409,
                0.0019919280894100668
            ],
            "type": "VEC2"
        },
        {
            "name": "Trim1Shape#0/indices",
            "bufferView": 0,
            "byteOffset": 72,
            "componentType": 5123,
            "count": 36,
            "max": [
                23
            ],
            "min": [
                0
            ],
            "type": "SCALAR"
        },
        {
            "name": "Trim1Shape#0/vertices/NORMAL",
            "bufferView": 1,
            "byteOffset": 576,
            "componentType": 5126,
            "count": 24,
            "max": [
                1.0,
                1.0,
                1.0
            ],
            "min": [
                -1.0,
                -1.0,
                -1.0
            ],
            "type": "VEC3"
        },
        {
            "name": "Trim1Shape#0/vertices/POSITION",
            "bufferView": 1,
            "byteOffset": 864,
            "componentType": 5126,
            "count": 24,
            "max": [
                -124.6072235107422,
                18.27342414855957,
                270.4483032226563
            ],
            "min": [
                -125.60728454589844,
                10.27342414855957,
                -333.69281005859377
            ],
            "type": "VEC3"
        },
        {
            "name": "Trim1Shape#0/vertices/TANGENT",
            "bufferView": 2,
            "byteOffset": 384,
            "componentType": 5126,
            "count": 24,
            "max": [
                0.0,
                1.0,
                0.00000381500012736069,
                1.0
            ],
            "min": [
                -1.0,
                -1.0,
                -0.00000381500012736069,
                1.0
            ],
            "type": "VEC4"
        },
        {
            "name": "Trim1Shape#0/vertices/TEXCOORD_0",
            "bufferView": 3,
            "byteOffset": 192,
            "componentType": 5126,
            "count": 24,
            "max": [
                0.06850754469633103,
                0.9980079531669616
            ],
            "min": [
                0.00013674200454261154,
                0.001991986995562911
            ],
            "type": "VEC2"
        },
        {
            "name": "TrimShape#0/indices",
            "bufferView": 0,
            "byteOffset": 144,
            "componentType": 5123,
            "count": 36,
            "max": [
                23
            ],
            "min": [
                0
            ],
            "type": "SCALAR"
        },
        {
            "name": "TrimShape#0/vertices/NORMAL",
            "bufferView": 1,
            "byteOffset": 1152,
            "componentType": 5126,
            "count": 24,
            "max": [
                1.0,
                1.0,
                1.0
            ],
            "min": [
                -1.0,
                -1.0,
                -1.0
            ],
            "type": "VEC3"
        },
        {
            "name": "TrimShape#0/vertices/POSITION",
            "bufferView": 1,
            "byteOffset": 1440,
            "componentType": 5126,
            "count": 24,
            "max": [
                274.9002685546875,
                18.27342414855957,
                270.4483032226563
            ],
            "min": [
                273.9002685546875,
                10.27342414855957,
                -333.69281005859377
            ],
            "type": "VEC3"
        },
        {
            "name": "TrimShape#0/vertices/TANGENT",
            "bufferView": 2,
            "byteOffset": 768,
            "componentType": 5126,
            "count": 24,
            "max": [
                1.0,
                1.0,
                0.00000381500012736069,
                1.0
            ],
            "min": [
                0.0,
                -1.0,
                -0.00000381500012736069,
                1.0
            ],
            "type": "VEC4"
        },
        {
            "name": "TrimShape#0/vertices/TEXCOORD_0",
            "bufferView": 3,
            "byteOffset": 384,
            "componentType": 5126,
            "count": 24,
            "max": [
                0.06850754469633103,
                0.9980079531669616
            ],
            "min": [
                0.00013674200454261154,
                0.001991986995562911
            ],
            "type": "VEC2"
        }
    ],
    "bufferViews": [
        {
            "name": "Trim/data/indices-2",
            "buffer": 0,
            "byteOffset": 3456,
            "byteLength": 216,
            "target": 34963
        },
        {
            "name": "Trim/data/vertices-12",
            "buffer": 0,
            "byteOffset": 1152,
            "byteLength": 1728,
            "byteStride": 12,
            "target": 34962
        },
        {
            "name": "Trim/data/vertices-16",
            "buffer": 0,
            "byteOffset": 0,
            "byteLength": 1152,
            "byteStride": 16,
            "target": 34962
        },
        {
            "name": "Trim/data/vertices-8",
            "buffer": 0,
            "byteOffset": 2880,
            "byteLength": 576,
            "byteStride": 8,
            "target": 34962
        }
    ],
    "buffers": [
        {
            "name": "Trim/data",
            "byteLength": 3672,
            "uri": "Trim0.bin"
        }
    ]
}
