{
    "asset": {
        "copyright": "(C)2024 osain",
        "generator": "maya2glTF main fbbc95e5dc4d",
        "version": "2.0"
    },
    "scenes": [
        {
            "nodes": [
                2,
                0
            ]
        }
    ],
    "scene": 0,
    "nodes": [
        {
            "name": "TV_Screen",
            "children": [
                1
            ],
            "translation": [
                135.90863037109376,
                66.53580474853516,
                -301.5176391601563
            ]
        },
        {
            "name": "TV_Screen:PIV",
            "mesh": 0,
            "translation": [
                -135.90863037109376,
                -66.53580474853516,
                301.5176391601563
            ]
        },
        {
            "name": "TV_Housing",
            "children": [
                3
            ],
            "translation": [
                135.89028930664066,
                105.76248168945313,
                -301.5176391601563
            ]
        },
        {
            "name": "TV_Housing:PIV",
            "mesh": 1,
            "translation": [
                -135.89028930664066,
                -105.76248168945313,
                301.5176391601563
            ]
        }
    ],
    "meshes": [
        {
            "name": "TV_ScreenShape",
            "extras": {
                "targetNames": []
            },
            "primitives": [
                {
                    "attributes": {
                        "NORMAL": 1,
                        "POSITION": 2,
                        "TANGENT": 3,
                        "TEXCOORD_0": 4
                    },
                    "indices": 0,
                    "mode": 4,
                    "material": 0
                }
            ]
        },
        {
            "name": "TV_HousingShape",
            "extras": {
                "targetNames": []
            },
            "primitives": [
                {
                    "attributes": {
                        "NORMAL": 6,
                        "POSITION": 7,
                        "TANGENT": 8,
                        "TEXCOORD_0": 9
                    },
                    "indices": 5,
                    "mode": 4,
                    "material": 0
                },
                {
                    "attributes": {
                        "NORMAL": 11,
                        "POSITION": 12,
                        "TANGENT": 13,
                        "TEXCOORD_1": 14
                    },
                    "indices": 10,
                    "mode": 4,
                    "material": 0
                }
            ]
        }
    ],
    "materials": [
        {
            "name": "lambert1",
            "pbrMetallicRoughness": {
                "baseColorFactor": [
                    0.4000000059604645,
                    0.4000000059604645,
                    0.4000000059604645,
                    1.0
                ],
                "metallicFactor": 0.0,
                "roughnessFactor": 1.0
            }
        }
    ],
    "accessors": [
        {
            "name": "TV_ScreenShape#0/indices",
            "bufferView": 0,
            "byteOffset": 0,
            "componentType": 5123,
            "count": 6,
            "max": [
                3
            ],
            "min": [
                0
            ],
            "type": "SCALAR"
        },
        {
            "name": "TV_ScreenShape#0/vertices/NORMAL",
            "bufferView": 1,
            "byteOffset": 0,
            "componentType": 5126,
            "count": 4,
            "max": [
                0.0,
                1.629999957231121e-7,
                1.0
            ],
            "min": [
                0.0,
                1.629999957231121e-7,
                1.0
            ],
            "type": "VEC3"
        },
        {
            "name": "TV_ScreenShape#0/vertices/POSITION",
            "bufferView": 1,
            "byteOffset": 48,
            "componentType": 5126,
            "count": 4,
            "max": [
                196.1146240234375,
                143.4182586669922,
                -299.2107238769531
            ],
            "min": [
                75.70263671875,
                75.32340240478516,
                -299.2107543945313
            ],
            "type": "VEC3"
        },
        {
            "name": "TV_ScreenShape#0/vertices/TANGENT",
            "bufferView": 2,
            "byteOffset": 0,
            "componentType": 5126,
            "count": 4,
            "max": [
                0.0,
                1.0,
                -1.629999957231121e-7,
                1.0
            ],
            "min": [
                0.0,
                1.0,
                -1.629999957231121e-7,
                1.0
            ],
            "type": "VEC4"
        },
        {
            "name": "TV_ScreenShape#0/vertices/TEXCOORD_0",
            "bufferView": 3,
            "byteOffset": 0,
            "componentType": 5126,
            "count": 4,
            "max": [
                0.5643866062164307,
                0.9980079531669616
            ],
            "min": [
                0.0011265199864283205,
                0.0019919280894100668
            ],
            "type": "VEC2"
        },
        {
            "name": "TV_HousingShape#0/indices",
            "bufferView": 0,
            "byteOffset": 12,
            "componentType": 5123,
            "count": 6744,
            "max": [
                4162
            ],
            "min": [
                0
            ],
            "type": "SCALAR"
        },
        {
            "name": "TV_HousingShape#0/vertices/NORMAL",
            "bufferView": 1,
            "byteOffset": 96,
            "componentType": 5126,
            "count": 4163,
            "max": [
                1.0,
                1.0,
                1.0
            ],
            "min": [
                -1.0,
                -1.0,
                -1.0
            ],
            "type": "VEC3"
        },
        {
            "name": "TV_HousingShape#0/vertices/POSITION",
            "bufferView": 1,
            "byteOffset": 50052,
            "componentType": 5126,
            "count": 4163,
            "max": [
                196.74595642089845,
                144.04959106445313,
                -288.0380554199219
            ],
            "min": [
                75.07130432128906,
                66.53580474853516,
                -314.9972229003906
            ],
            "type": "VEC3"
        },
        {
            "name": "TV_HousingShape#0/vertices/TANGENT",
            "bufferView": 2,
            "byteOffset": 64,
            "componentType": 5126,
            "count": 4163,
            "max": [
                1.0,
                1.0,
                1.0,
                1.0
            ],
            "min": [
                -1.0,
                -1.0,
                -1.0,
                1.0
            ],
            "type": "VEC4"
        },
        {
            "name": "TV_HousingShape#0/vertices/TEXCOORD_0",
            "bufferView": 3,
            "byteOffset": 32,
            "componentType": 5126,
            "count": 4163,
            "max": [
                0.9980080127716065,
                0.9983052015304564
            ],
            "min": [
                0.001586377969942987,
                0.001991986995562911
            ],
            "type": "VEC2"
        },
        {
            "name": "TV_HousingShape#1/indices",
            "bufferView": 0,
            "byteOffset": 13500,
            "componentType": 5123,
            "count": 1920,
            "max": [
                501
            ],
            "min": [
                0
            ],
            "type": "SCALAR"
        },
        {
            "name": "TV_HousingShape#1/vertices/NORMAL",
            "bufferView": 1,
            "byteOffset": 100008,
            "componentType": 5126,
            "count": 502,
            "max": [
                0.9999988079071044,
                0.9999985098838806,
                0.9987196922302246
            ],
            "min": [
                -0.9999986290931702,
                -0.9999990463256836,
                -0.999987006187439
            ],
            "type": "VEC3"
        },
        {
            "name": "TV_HousingShape#1/vertices/POSITION",
            "bufferView": 1,
            "byteOffset": 106032,
            "componentType": 5126,
            "count": 502,
            "max": [
                197.6591796875,
                144.98916625976566,
                -298.55950927734377
            ],
            "min": [
                74.12139892578125,
                73.77885437011719,
                -300.625244140625
            ],
            "type": "VEC3"
        },
        {
            "name": "TV_HousingShape#1/vertices/TANGENT",
            "bufferView": 2,
            "byteOffset": 66672,
            "componentType": 5126,
            "count": 502,
            "max": [
                0.8580932021141052,
                0.9999911785125732,
                0.9999990463256836,
                1.0
            ],
            "min": [
                -0.9212164878845216,
                -1.0,
                -0.9999987483024596,
                1.0
            ],
            "type": "VEC4"
        },
        {
            "name": "TV_HousingShape#1/vertices/TEXCOORD_1",
            "bufferView": 3,
            "byteOffset": 33336,
            "componentType": 5126,
            "count": 502,
            "max": [
                0.7935741543769836,
                0.9980079531669616
            ],
            "min": [
                0.0015839809784665704,
                0.001991986995562911
            ],
            "type": "VEC2"
        }
    ],
    "bufferViews": [
        {
            "name": "TV/data/indices-2",
            "buffer": 0,
            "byteOffset": 224112,
            "byteLength": 17340,
            "target": 34963
        },
        {
            "name": "TV/data/vertices-12",
            "buffer": 0,
            "byteOffset": 74704,
            "byteLength": 112056,
            "byteStride": 12,
            "target": 34962
        },
        {
            "name": "TV/data/vertices-16",
            "buffer": 0,
            "byteOffset": 0,
            "byteLength": 74704,
            "byteStride": 16,
            "target": 34962
        },
        {
            "name": "TV/data/vertices-8",
            "buffer": 0,
            "byteOffset": 186760,
            "byteLength": 37352,
            "byteStride": 8,
            "target": 34962
        }
    ],
    "buffers": [
        {
            "name": "TV/data",
            "byteLength": 241452,
            "uri": "TV0.bin"
        }
    ]
}
