{
    "asset": {
        "copyright": "(C)2024 osain",
        "generator": "maya2glTF main fbbc95e5dc4d",
        "version": "2.0"
    },
    "scenes": [
        {
            "nodes": [
                2,
                0
            ]
        }
    ],
    "scene": 0,
    "nodes": [
        {
            "name": "Vase_2",
            "children": [
                1
            ],
            "translation": [
                110.9251708984375,
                157.7292022705078,
                -320.2870178222656
            ]
        },
        {
            "name": "Vase_2:PIV",
            "mesh": 0,
            "translation": [
                -110.9251708984375,
                -157.7292022705078,
                320.2870178222656
            ]
        },
        {
            "name": "Vase_1",
            "children": [
                3
            ],
            "translation": [
                -18.668041229248048,
                135.64712524414066,
                -318.1157531738281
            ]
        },
        {
            "name": "Vase_1:PIV",
            "mesh": 1,
            "translation": [
                18.668041229248048,
                -135.64712524414066,
                318.1157531738281
            ]
        }
    ],
    "meshes": [
        {
            "name": "Vase_2Shape",
            "extras": {
                "targetNames": []
            },
            "primitives": [
                {
                    "attributes": {
                        "NORMAL": 1,
                        "POSITION": 2,
                        "TANGENT": 3,
                        "TEXCOORD_0": 4
                    },
                    "indices": 0,
                    "mode": 4,
                    "material": 0
                }
            ]
        },
        {
            "name": "Vase_1Shape",
            "extras": {
                "targetNames": []
            },
            "primitives": [
                {
                    "attributes": {
                        "NORMAL": 6,
                        "POSITION": 7,
                        "TANGENT": 8,
                        "TEXCOORD_0": 9
                    },
                    "indices": 5,
                    "mode": 4,
                    "material": 0
                }
            ]
        }
    ],
    "materials": [
        {
            "name": "lambert1",
            "pbrMetallicRoughness": {
                "baseColorFactor": [
                    0.4000000059604645,
                    0.4000000059604645,
                    0.4000000059604645,
                    1.0
                ],
                "metallicFactor": 0.0,
                "roughnessFactor": 1.0
            }
        }
    ],
    "accessors": [
        {
            "name": "Vase_2Shape#0/indices",
            "bufferView": 0,
            "byteOffset": 0,
            "componentType": 5123,
            "count": 2028,
            "max": [
                2027
            ],
            "min": [
                0
            ],
            "type": "SCALAR"
        },
        {
            "name": "Vase_2Shape#0/vertices/NORMAL",
            "bufferView": 1,
            "byteOffset": 0,
            "componentType": 5126,
            "count": 2028,
            "max": [
                0.9995019435882568,
                1.0,
                0.9996553659439088
            ],
            "min": [
                -0.9991003274917604,
                -0.99995756149292,
                -0.999478816986084
            ],
            "type": "VEC3"
        },
        {
            "name": "Vase_2Shape#0/vertices/POSITION",
            "bufferView": 1,
            "byteOffset": 24336,
            "componentType": 5126,
            "count": 2028,
            "max": [
                117.81157684326172,
                204.04222106933598,
                -311.8066711425781
            ],
            "min": [
                101.23794555664064,
                157.62335205078126,
                -327.37835693359377
            ],
            "type": "VEC3"
        },
        {
            "name": "Vase_2Shape#0/vertices/TANGENT",
            "bufferView": 2,
            "byteOffset": 0,
            "componentType": 5126,
            "count": 2028,
            "max": [
                0.9998764991760254,
                0.989061951637268,
                0.9772871136665344,
                1.0
            ],
            "min": [
                -0.9999018311500548,
                -0.8622658848762512,
                -0.9966546893119812,
                1.0
            ],
            "type": "VEC4"
        },
        {
            "name": "Vase_2Shape#0/vertices/TEXCOORD_0",
            "bufferView": 3,
            "byteOffset": 0,
            "componentType": 5126,
            "count": 2028,
            "max": [
                0.9595171809196472,
                0.8345731496810913
            ],
            "min": [
                0.07176472246646881,
                0.06527304649353028
            ],
            "type": "VEC2"
        },
        {
            "name": "Vase_1Shape#0/indices",
            "bufferView": 0,
            "byteOffset": 4056,
            "componentType": 5123,
            "count": 2688,
            "max": [
                2585
            ],
            "min": [
                0
            ],
            "type": "SCALAR"
        },
        {
            "name": "Vase_1Shape#0/vertices/NORMAL",
            "bufferView": 1,
            "byteOffset": 48672,
            "componentType": 5126,
            "count": 2586,
            "max": [
                0.9933592081069946,
                1.0,
                0.9782679080963136
            ],
            "min": [
                -0.9933592081069946,
                -1.0,
                -0.9782679080963136
            ],
            "type": "VEC3"
        },
        {
            "name": "Vase_1Shape#0/vertices/POSITION",
            "bufferView": 1,
            "byteOffset": 79704,
            "componentType": 5126,
            "count": 2586,
            "max": [
                -3.49794864654541,
                178.89218139648438,
                -303.1761169433594
            ],
            "min": [
                -33.838134765625,
                135.64883422851566,
                -333.0553894042969
            ],
            "type": "VEC3"
        },
        {
            "name": "Vase_1Shape#0/vertices/TANGENT",
            "bufferView": 2,
            "byteOffset": 32448,
            "componentType": 5126,
            "count": 2586,
            "max": [
                0.9939688444137572,
                0.8032307028770447,
                1.0,
                1.0
            ],
            "min": [
                -0.9923468828201294,
                -0.807089626789093,
                -1.0,
                -1.0
            ],
            "type": "VEC4"
        },
        {
            "name": "Vase_1Shape#0/vertices/TEXCOORD_0",
            "bufferView": 3,
            "byteOffset": 16224,
            "componentType": 5126,
            "count": 2586,
            "max": [
                0.9979516267776488,
                1.0
            ],
            "min": [
                0.0,
                0.0
            ],
            "type": "VEC2"
        }
    ],
    "bufferViews": [
        {
            "name": "Vase/data/indices-2",
            "buffer": 0,
            "byteOffset": 221472,
            "byteLength": 9432,
            "target": 34963
        },
        {
            "name": "Vase/data/vertices-12",
            "buffer": 0,
            "byteOffset": 73824,
            "byteLength": 110736,
            "byteStride": 12,
            "target": 34962
        },
        {
            "name": "Vase/data/vertices-16",
            "buffer": 0,
            "byteOffset": 0,
            "byteLength": 73824,
            "byteStride": 16,
            "target": 34962
        },
        {
            "name": "Vase/data/vertices-8",
            "buffer": 0,
            "byteOffset": 184560,
            "byteLength": 36912,
            "byteStride": 8,
            "target": 34962
        }
    ],
    "buffers": [
        {
            "name": "Vase/data",
            "byteLength": 230904,
            "uri": "Vase0.bin"
        }
    ]
}
