{
    "asset": {
        "copyright": "(C)2024 osain",
        "generator": "maya2glTF main fbbc95e5dc4d",
        "version": "2.0"
    },
    "scenes": [
        {
            "nodes": [
                0
            ]
        }
    ],
    "scene": 0,
    "nodes": [
        {
            "name": "Xbox1",
            "children": [
                1
            ],
            "translation": [
                6.099909782409668,
                71.0542984008789,
                -296.4778747558594
            ]
        },
        {
            "name": "Xbox1:PIV",
            "mesh": 0,
            "translation": [
                -6.099909782409668,
                -71.0542984008789,
                296.4778747558594
            ]
        }
    ],
    "meshes": [
        {
            "name": "Xbox1Shape",
            "extras": {
                "targetNames": []
            },
            "primitives": [
                {
                    "attributes": {
                        "NORMAL": 1,
                        "POSITION": 2,
                        "TANGENT": 3,
                        "TEXCOORD_0": 4
                    },
                    "indices": 0,
                    "mode": 4,
                    "material": 0
                }
            ]
        }
    ],
    "materials": [
        {
            "name": "lambert1",
            "pbrMetallicRoughness": {
                "baseColorFactor": [
                    0.4000000059604645,
                    0.4000000059604645,
                    0.4000000059604645,
                    1.0
                ],
                "metallicFactor": 0.0,
                "roughnessFactor": 1.0
            }
        }
    ],
    "accessors": [
        {
            "name": "Xbox1Shape#0/indices",
            "bufferView": 0,
            "byteOffset": 0,
            "componentType": 5125,
            "count": 161517,
            "max": [
                134482
            ],
            "min": [
                0
            ],
            "type": "SCALAR"
        },
        {
            "name": "Xbox1Shape#0/vertices/NORMAL",
            "bufferView": 1,
            "byteOffset": 0,
            "componentType": 5126,
            "count": 134483,
            "max": [
                1.0,
                1.0,
                1.0
            ],
            "min": [
                -1.0,
                -1.0,
                -1.0
            ],
            "type": "VEC3"
        },
        {
            "name": "Xbox1Shape#0/vertices/POSITION",
            "bufferView": 1,
            "byteOffset": 1613796,
            "componentType": 5126,
            "count": 134483,
            "max": [
                23.189523696899419,
                74.9109878540039,
                -283.4182739257813
            ],
            "min": [
                -10.98970413208008,
                67.1976089477539,
                -309.5374755859375
            ],
            "type": "VEC3"
        },
        {
            "name": "Xbox1Shape#0/vertices/TANGENT",
            "bufferView": 2,
            "byteOffset": 0,
            "componentType": 5126,
            "count": 134483,
            "max": [
                1.0,
                1.0,
                1.0,
                1.0
            ],
            "min": [
                -1.0,
                -1.0,
                -1.0,
                -1.0
            ],
            "type": "VEC4"
        },
        {
            "name": "Xbox1Shape#0/vertices/TEXCOORD_0",
            "bufferView": 3,
            "byteOffset": 0,
            "componentType": 5126,
            "count": 134483,
            "max": [
                0.9221714735031128,
                0.9980079531669616
            ],
            "min": [
                0.0018406619783490897,
                0.001991868019104004
            ],
            "type": "VEC2"
        }
    ],
    "bufferViews": [
        {
            "name": "Xbox/data/indices-4",
            "buffer": 0,
            "byteOffset": 6455184,
            "byteLength": 646068,
            "target": 34963
        },
        {
            "name": "Xbox/data/vertices-12",
            "buffer": 0,
            "byteOffset": 2151728,
            "byteLength": 3227592,
            "byteStride": 12,
            "target": 34962
        },
        {
            "name": "Xbox/data/vertices-16",
            "buffer": 0,
            "byteOffset": 0,
            "byteLength": 2151728,
            "byteStride": 16,
            "target": 34962
        },
        {
            "name": "Xbox/data/vertices-8",
            "buffer": 0,
            "byteOffset": 5379320,
            "byteLength": 1075864,
            "byteStride": 8,
            "target": 34962
        }
    ],
    "buffers": [
        {
            "name": "Xbox/data",
            "byteLength": 7101252,
            "uri": "Xbox0.bin"
        }
    ]
}
